%TF.GenerationSoftware,Altium Limited,Altium Designer,25.8.1 (18)*%
G04 Layer_Physical_Order=4*
G04 Layer_Color=16711680*
%FSLAX45Y45*%
%MOMM*%
%TF.SameCoordinates,17085BFC-A43B-44DB-BDC7-07AAAC4551C8*%
%TF.FilePolarity,Positive*%
%TF.FileFunction,Copper,L4,Bot,Signal*%
%TF.Part,Single*%
G01*
G75*
%TA.AperFunction,Conductor*%
%ADD36C,0.20000*%
%ADD37C,0.15500*%
%ADD38C,0.15000*%
%TA.AperFunction,ComponentPad*%
G04:AMPARAMS|DCode=40|XSize=1.7mm|YSize=1.7mm|CornerRadius=0.85mm|HoleSize=0mm|Usage=FLASHONLY|Rotation=270.000|XOffset=0mm|YOffset=0mm|HoleType=Round|Shape=RoundedRectangle|*
%AMROUNDEDRECTD40*
21,1,1.70000,0.00000,0,0,270.0*
21,1,0.00000,1.70000,0,0,270.0*
1,1,1.70000,0.00000,0.00000*
1,1,1.70000,0.00000,0.00000*
1,1,1.70000,0.00000,0.00000*
1,1,1.70000,0.00000,0.00000*
%
%ADD40ROUNDEDRECTD40*%
%ADD41R,1.70000X1.70000*%
G04:AMPARAMS|DCode=42|XSize=1mm|YSize=1mm|CornerRadius=0.5mm|HoleSize=0mm|Usage=FLASHONLY|Rotation=180.000|XOffset=0mm|YOffset=0mm|HoleType=Round|Shape=RoundedRectangle|*
%AMROUNDEDRECTD42*
21,1,1.00000,0.00000,0,0,180.0*
21,1,0.00000,1.00000,0,0,180.0*
1,1,1.00000,0.00000,0.00000*
1,1,1.00000,0.00000,0.00000*
1,1,1.00000,0.00000,0.00000*
1,1,1.00000,0.00000,0.00000*
%
%ADD42ROUNDEDRECTD42*%
%ADD43R,1.00000X1.00000*%
%ADD44R,0.85000X0.85000*%
G04:AMPARAMS|DCode=45|XSize=1mm|YSize=2.2mm|CornerRadius=0.25mm|HoleSize=0mm|Usage=FLASHONLY|Rotation=270.000|XOffset=0mm|YOffset=0mm|HoleType=Round|Shape=RoundedRectangle|*
%AMROUNDEDRECTD45*
21,1,1.00000,1.70000,0,0,270.0*
21,1,0.50000,2.20000,0,0,270.0*
1,1,0.50000,-0.85000,-0.25000*
1,1,0.50000,-0.85000,0.25000*
1,1,0.50000,0.85000,0.25000*
1,1,0.50000,0.85000,-0.25000*
%
%ADD45ROUNDEDRECTD45*%
%ADD46C,0.65000*%
G04:AMPARAMS|DCode=47|XSize=1.7mm|YSize=1.7mm|CornerRadius=0.85mm|HoleSize=0mm|Usage=FLASHONLY|Rotation=0.000|XOffset=0mm|YOffset=0mm|HoleType=Round|Shape=RoundedRectangle|*
%AMROUNDEDRECTD47*
21,1,1.70000,0.00000,0,0,0.0*
21,1,0.00000,1.70000,0,0,0.0*
1,1,1.70000,0.00000,0.00000*
1,1,1.70000,0.00000,0.00000*
1,1,1.70000,0.00000,0.00000*
1,1,1.70000,0.00000,0.00000*
%
%ADD47ROUNDEDRECTD47*%
%ADD48R,1.70000X1.70000*%
%TA.AperFunction,ViaPad*%
%ADD49C,0.45000*%
G36*
X5500000Y7063107D02*
X11226434D01*
X11393107Y6896434D01*
Y2570000D01*
X11393743Y2566804D01*
X11389251Y2532688D01*
X11374849Y2497918D01*
X11351939Y2468061D01*
X11322082Y2445151D01*
X11287312Y2430749D01*
X11253196Y2426258D01*
X11250000Y2426893D01*
X5500000D01*
X5496804Y2426258D01*
X5462688Y2430749D01*
X5427918Y2445151D01*
X5398061Y2468061D01*
X5375151Y2497918D01*
X5360749Y2532688D01*
X5356263Y2566763D01*
X5356893Y2569905D01*
X5357063Y2671744D01*
X5357542Y2958761D01*
X5382018Y2980546D01*
X5552018D01*
X5571806Y2983151D01*
X5590245Y2990789D01*
X5606079Y3002939D01*
X5618230Y3018773D01*
X5625867Y3037212D01*
X5628472Y3057000D01*
Y3107000D01*
X5641703Y3122087D01*
X5760333D01*
X5773564Y3107000D01*
Y3057000D01*
X5776169Y3037212D01*
X5783807Y3018773D01*
X5795957Y3002939D01*
X5811791Y2990789D01*
X5830230Y2983151D01*
X5850018Y2980546D01*
X6020018D01*
X6039806Y2983151D01*
X6058245Y2990789D01*
X6074080Y3002939D01*
X6086230Y3018773D01*
X6093867Y3037212D01*
X6096472Y3057000D01*
Y3107000D01*
X6093867Y3126788D01*
X6086230Y3145227D01*
X6074080Y3161061D01*
X6058245Y3173211D01*
X6039806Y3180849D01*
X6020018Y3183454D01*
X6015805D01*
X6008520Y3195978D01*
X6005434Y3208854D01*
X6016281Y3222991D01*
X6024674Y3243254D01*
X6027537Y3265000D01*
X6024674Y3286746D01*
X6016281Y3307010D01*
X6008392Y3317290D01*
X6008931Y3320000D01*
Y3950000D01*
X6006812Y3960651D01*
X6016281Y3972991D01*
X6024674Y3993254D01*
X6027537Y4015000D01*
X6024674Y4036746D01*
X6016281Y4057010D01*
X6005434Y4071146D01*
X6008520Y4084022D01*
X6015805Y4096546D01*
X6020018D01*
X6039806Y4099151D01*
X6058245Y4106789D01*
X6074080Y4118939D01*
X6086230Y4134773D01*
X6093867Y4153212D01*
X6096472Y4173000D01*
Y4223000D01*
X6093867Y4242788D01*
X6086230Y4261227D01*
X6074080Y4277061D01*
X6058245Y4289211D01*
X6039806Y4296849D01*
X6020018Y4299454D01*
X5850018D01*
X5830230Y4296849D01*
X5811791Y4289211D01*
X5795957Y4277061D01*
X5783807Y4261227D01*
X5776169Y4242788D01*
X5773564Y4223000D01*
Y4173000D01*
X5760333Y4157913D01*
X5642703D01*
X5629472Y4173000D01*
Y4223000D01*
X5626867Y4242788D01*
X5619230Y4261227D01*
X5607079Y4277061D01*
X5591245Y4289211D01*
X5572806Y4296849D01*
X5553018Y4299454D01*
X5384425D01*
X5382779Y4299674D01*
X5359035Y4321524D01*
X5359289Y4862859D01*
X5382481Y4885386D01*
X5552481D01*
X5572269Y4887991D01*
X5590708Y4895629D01*
X5606542Y4907779D01*
X5618692Y4923613D01*
X5626330Y4942052D01*
X5628935Y4961840D01*
Y5011840D01*
X5642166Y5026927D01*
X5760796D01*
X5774027Y5011840D01*
Y4961840D01*
X5776632Y4942052D01*
X5784270Y4923613D01*
X5796420Y4907779D01*
X5812254Y4895629D01*
X5830693Y4887991D01*
X5850481Y4885386D01*
X6020481D01*
X6040269Y4887991D01*
X6058708Y4895629D01*
X6074542Y4907779D01*
X6086692Y4923613D01*
X6094330Y4942052D01*
X6096935Y4961840D01*
Y5011840D01*
X6094330Y5031628D01*
X6086692Y5050067D01*
X6074542Y5065901D01*
X6058708Y5078051D01*
X6040269Y5085689D01*
X6020481Y5088294D01*
X6016268D01*
X6008983Y5100818D01*
X6005896Y5113694D01*
X6016743Y5127830D01*
X6025137Y5148094D01*
X6028000Y5169840D01*
X6025137Y5191586D01*
X6016743Y5211850D01*
X6008855Y5222130D01*
X6009394Y5224840D01*
Y5854840D01*
X6007275Y5865491D01*
X6016743Y5877831D01*
X6025137Y5898094D01*
X6028000Y5919840D01*
X6025137Y5941586D01*
X6016743Y5961850D01*
X6005896Y5975986D01*
X6008983Y5988862D01*
X6016268Y6001386D01*
X6020481D01*
X6040269Y6003991D01*
X6058708Y6011629D01*
X6074542Y6023779D01*
X6086692Y6039613D01*
X6094330Y6058052D01*
X6096935Y6077840D01*
Y6127840D01*
X6094330Y6147628D01*
X6086692Y6166067D01*
X6074542Y6181901D01*
X6058708Y6194051D01*
X6040269Y6201689D01*
X6020481Y6204294D01*
X5850481D01*
X5830693Y6201689D01*
X5812254Y6194051D01*
X5796420Y6181901D01*
X5784270Y6166067D01*
X5776632Y6147628D01*
X5774027Y6127840D01*
Y6077840D01*
X5760796Y6062753D01*
X5643166D01*
X5629935Y6077840D01*
Y6127840D01*
X5627330Y6147628D01*
X5619692Y6166067D01*
X5607542Y6181901D01*
X5591708Y6194051D01*
X5573269Y6201689D01*
X5553481Y6204294D01*
X5383481D01*
X5359036Y6226097D01*
X5357913Y6920094D01*
X5356667Y6926306D01*
X5360749Y6957312D01*
X5375151Y6992082D01*
X5398061Y7021939D01*
X5427918Y7044850D01*
X5462688Y7059251D01*
X5496803Y7063743D01*
X5500000Y7063107D01*
D02*
G37*
%LPC*%
G36*
X7866000Y6906972D02*
X7830549Y6902304D01*
X7797514Y6888621D01*
X7769147Y6866854D01*
X7754351Y6847571D01*
X7749633Y6845765D01*
X7728367D01*
X7723650Y6847571D01*
X7708854Y6866854D01*
X7680486Y6888621D01*
X7647451Y6902304D01*
X7612000Y6906972D01*
X7576549Y6902304D01*
X7543514Y6888621D01*
X7515147Y6866854D01*
X7500351Y6847571D01*
X7495633Y6845765D01*
X7474367D01*
X7469650Y6847571D01*
X7454854Y6866854D01*
X7426486Y6888621D01*
X7393451Y6902304D01*
X7358000Y6906972D01*
X7322549Y6902304D01*
X7289514Y6888621D01*
X7261147Y6866854D01*
X7246351Y6847571D01*
X7241633Y6845765D01*
X7220367D01*
X7215650Y6847571D01*
X7200854Y6866854D01*
X7172486Y6888621D01*
X7139451Y6902304D01*
X7104000Y6906972D01*
X7068549Y6902304D01*
X7035514Y6888621D01*
X7007147Y6866854D01*
X6992351Y6847571D01*
X6987633Y6845765D01*
X6966367D01*
X6961650Y6847571D01*
X6946854Y6866854D01*
X6918486Y6888621D01*
X6885451Y6902304D01*
X6850000Y6906972D01*
X6814549Y6902304D01*
X6781514Y6888621D01*
X6753147Y6866854D01*
X6738351Y6847571D01*
X6733633Y6845765D01*
X6712367D01*
X6707650Y6847571D01*
X6692854Y6866854D01*
X6664486Y6888621D01*
X6631451Y6902304D01*
X6596000Y6906972D01*
X6560549Y6902304D01*
X6527514Y6888621D01*
X6499147Y6866854D01*
X6484351Y6847571D01*
X6479633Y6845765D01*
X6458367D01*
X6453650Y6847571D01*
X6438854Y6866854D01*
X6410486Y6888621D01*
X6377451Y6902304D01*
X6342000Y6906972D01*
X6306549Y6902304D01*
X6273514Y6888621D01*
X6245147Y6866854D01*
X6230351Y6847571D01*
X6225633Y6845765D01*
X6204367D01*
X6199650Y6847571D01*
X6184854Y6866854D01*
X6156486Y6888621D01*
X6123451Y6902304D01*
X6088000Y6906972D01*
X6052549Y6902304D01*
X6019514Y6888621D01*
X5991147Y6866854D01*
X5976351Y6847571D01*
X5971633Y6845765D01*
X5950367D01*
X5945650Y6847571D01*
X5930854Y6866854D01*
X5902486Y6888621D01*
X5869451Y6902304D01*
X5834000Y6906972D01*
X5798549Y6902304D01*
X5765514Y6888621D01*
X5737147Y6866854D01*
X5722351Y6847571D01*
X5717633Y6845765D01*
X5696367D01*
X5691650Y6847571D01*
X5676854Y6866854D01*
X5648486Y6888621D01*
X5615451Y6902304D01*
X5580000Y6906972D01*
X5544549Y6902304D01*
X5511514Y6888621D01*
X5483147Y6866854D01*
X5461379Y6838486D01*
X5447696Y6805451D01*
X5443028Y6770000D01*
X5447696Y6734549D01*
X5461379Y6701514D01*
X5483147Y6673147D01*
X5511514Y6651379D01*
X5544549Y6637696D01*
X5580000Y6633029D01*
X5615451Y6637696D01*
X5648486Y6651379D01*
X5676854Y6673147D01*
X5691650Y6692429D01*
X5696367Y6694235D01*
X5717633D01*
X5722351Y6692429D01*
X5737147Y6673147D01*
X5765514Y6651379D01*
X5798549Y6637696D01*
X5834000Y6633029D01*
X5869451Y6637696D01*
X5902486Y6651379D01*
X5930854Y6673147D01*
X5945650Y6692429D01*
X5950367Y6694235D01*
X5971633D01*
X5976351Y6692429D01*
X5991147Y6673147D01*
X6019514Y6651379D01*
X6052549Y6637696D01*
X6088000Y6633029D01*
X6123451Y6637696D01*
X6156486Y6651379D01*
X6184854Y6673147D01*
X6199650Y6692429D01*
X6204367Y6694235D01*
X6225633D01*
X6230351Y6692429D01*
X6245147Y6673147D01*
X6273514Y6651379D01*
X6306549Y6637696D01*
X6342000Y6633029D01*
X6377451Y6637696D01*
X6410486Y6651379D01*
X6438854Y6673147D01*
X6453650Y6692429D01*
X6458367Y6694235D01*
X6479633D01*
X6484351Y6692429D01*
X6499147Y6673147D01*
X6527514Y6651379D01*
X6560549Y6637696D01*
X6596000Y6633029D01*
X6631451Y6637696D01*
X6664486Y6651379D01*
X6692854Y6673147D01*
X6707650Y6692429D01*
X6712367Y6694235D01*
X6733633D01*
X6738351Y6692429D01*
X6753147Y6673147D01*
X6781514Y6651379D01*
X6814549Y6637696D01*
X6850000Y6633029D01*
X6885451Y6637696D01*
X6918486Y6651379D01*
X6946854Y6673147D01*
X6961650Y6692429D01*
X6966367Y6694235D01*
X6987633D01*
X6992351Y6692429D01*
X7007147Y6673147D01*
X7035514Y6651379D01*
X7068549Y6637696D01*
X7104000Y6633029D01*
X7139451Y6637696D01*
X7172486Y6651379D01*
X7200854Y6673147D01*
X7215650Y6692429D01*
X7220367Y6694235D01*
X7241633D01*
X7246351Y6692429D01*
X7261147Y6673147D01*
X7289514Y6651379D01*
X7322549Y6637696D01*
X7358000Y6633029D01*
X7393451Y6637696D01*
X7426486Y6651379D01*
X7454854Y6673147D01*
X7469650Y6692429D01*
X7474367Y6694235D01*
X7495633D01*
X7500351Y6692429D01*
X7515147Y6673147D01*
X7543514Y6651379D01*
X7576549Y6637696D01*
X7612000Y6633029D01*
X7647451Y6637696D01*
X7680486Y6651379D01*
X7708854Y6673147D01*
X7723650Y6692429D01*
X7728367Y6694235D01*
X7749633D01*
X7754351Y6692429D01*
X7769147Y6673147D01*
X7797514Y6651379D01*
X7830549Y6637696D01*
X7866000Y6633029D01*
X7901451Y6637696D01*
X7934486Y6651379D01*
X7958800Y6670036D01*
X7984200Y6663187D01*
Y6634200D01*
X8255800D01*
Y6905800D01*
X7984200D01*
Y6876814D01*
X7958800Y6869964D01*
X7934486Y6888621D01*
X7901451Y6902304D01*
X7866000Y6906972D01*
D02*
G37*
G36*
X10816000D02*
X10780549Y6902304D01*
X10747514Y6888621D01*
X10719146Y6866854D01*
X10704350Y6847571D01*
X10699633Y6845765D01*
X10678367D01*
X10673649Y6847571D01*
X10658853Y6866854D01*
X10630486Y6888621D01*
X10597451Y6902304D01*
X10562000Y6906972D01*
X10526549Y6902304D01*
X10493514Y6888621D01*
X10465146Y6866854D01*
X10450350Y6847571D01*
X10445633Y6845765D01*
X10424367D01*
X10419649Y6847571D01*
X10404853Y6866854D01*
X10376486Y6888621D01*
X10343451Y6902304D01*
X10308000Y6906972D01*
X10272549Y6902304D01*
X10239514Y6888621D01*
X10211146Y6866854D01*
X10196350Y6847571D01*
X10191633Y6845765D01*
X10170367D01*
X10165649Y6847571D01*
X10150853Y6866854D01*
X10122486Y6888621D01*
X10089451Y6902304D01*
X10054000Y6906972D01*
X10018549Y6902304D01*
X9985514Y6888621D01*
X9957146Y6866854D01*
X9942350Y6847571D01*
X9937633Y6845765D01*
X9916367D01*
X9911649Y6847571D01*
X9896853Y6866854D01*
X9868486Y6888621D01*
X9835451Y6902304D01*
X9800000Y6906972D01*
X9764549Y6902304D01*
X9731514Y6888621D01*
X9703146Y6866854D01*
X9688350Y6847571D01*
X9683633Y6845765D01*
X9662367D01*
X9657649Y6847571D01*
X9642853Y6866854D01*
X9614486Y6888621D01*
X9581451Y6902304D01*
X9546000Y6906972D01*
X9510549Y6902304D01*
X9477514Y6888621D01*
X9449146Y6866854D01*
X9434350Y6847571D01*
X9429633Y6845765D01*
X9408367D01*
X9403649Y6847571D01*
X9388853Y6866854D01*
X9360486Y6888621D01*
X9327451Y6902304D01*
X9292000Y6906972D01*
X9256549Y6902304D01*
X9223514Y6888621D01*
X9195146Y6866854D01*
X9180350Y6847571D01*
X9175633Y6845765D01*
X9154367D01*
X9149649Y6847571D01*
X9134853Y6866854D01*
X9106486Y6888621D01*
X9073451Y6902304D01*
X9038000Y6906972D01*
X9002549Y6902304D01*
X8969514Y6888621D01*
X8941146Y6866854D01*
X8926350Y6847571D01*
X8921633Y6845765D01*
X8900367D01*
X8895649Y6847571D01*
X8880853Y6866854D01*
X8852486Y6888621D01*
X8819451Y6902304D01*
X8784000Y6906972D01*
X8748549Y6902304D01*
X8715514Y6888621D01*
X8687146Y6866854D01*
X8672350Y6847571D01*
X8667633Y6845765D01*
X8646367D01*
X8641649Y6847571D01*
X8626853Y6866854D01*
X8598486Y6888621D01*
X8565451Y6902304D01*
X8555400Y6903628D01*
Y6770000D01*
Y6636373D01*
X8565451Y6637696D01*
X8598486Y6651379D01*
X8626853Y6673147D01*
X8641649Y6692429D01*
X8646367Y6694235D01*
X8667633D01*
X8672350Y6692429D01*
X8687146Y6673147D01*
X8715514Y6651379D01*
X8748549Y6637696D01*
X8784000Y6633029D01*
X8819451Y6637696D01*
X8852486Y6651379D01*
X8880853Y6673147D01*
X8895649Y6692429D01*
X8900367Y6694235D01*
X8921633D01*
X8926350Y6692429D01*
X8941146Y6673147D01*
X8969514Y6651379D01*
X9002549Y6637696D01*
X9038000Y6633029D01*
X9073451Y6637696D01*
X9106486Y6651379D01*
X9134853Y6673147D01*
X9149649Y6692429D01*
X9154367Y6694235D01*
X9175633D01*
X9180350Y6692429D01*
X9195146Y6673147D01*
X9223514Y6651379D01*
X9256549Y6637696D01*
X9292000Y6633029D01*
X9327451Y6637696D01*
X9360486Y6651379D01*
X9388853Y6673147D01*
X9403649Y6692429D01*
X9408367Y6694235D01*
X9429633D01*
X9434350Y6692429D01*
X9449146Y6673147D01*
X9477514Y6651379D01*
X9510549Y6637696D01*
X9546000Y6633029D01*
X9581451Y6637696D01*
X9614486Y6651379D01*
X9642853Y6673147D01*
X9657649Y6692429D01*
X9662367Y6694235D01*
X9683633D01*
X9688350Y6692429D01*
X9703146Y6673147D01*
X9731514Y6651379D01*
X9764549Y6637696D01*
X9800000Y6633029D01*
X9835451Y6637696D01*
X9868486Y6651379D01*
X9896853Y6673147D01*
X9911649Y6692429D01*
X9916367Y6694235D01*
X9937633D01*
X9942350Y6692429D01*
X9957146Y6673147D01*
X9985514Y6651379D01*
X10018549Y6637696D01*
X10054000Y6633029D01*
X10089451Y6637696D01*
X10122486Y6651379D01*
X10150853Y6673147D01*
X10165649Y6692429D01*
X10170367Y6694235D01*
X10191633D01*
X10196350Y6692429D01*
X10211146Y6673147D01*
X10239514Y6651379D01*
X10272549Y6637696D01*
X10308000Y6633029D01*
X10343451Y6637696D01*
X10376486Y6651379D01*
X10404853Y6673147D01*
X10419649Y6692429D01*
X10424367Y6694235D01*
X10445633D01*
X10450350Y6692429D01*
X10465146Y6673147D01*
X10493514Y6651379D01*
X10526549Y6637696D01*
X10562000Y6633029D01*
X10597451Y6637696D01*
X10630486Y6651379D01*
X10658853Y6673147D01*
X10673649Y6692429D01*
X10678367Y6694235D01*
X10699633D01*
X10704350Y6692429D01*
X10719146Y6673147D01*
X10747514Y6651379D01*
X10780549Y6637696D01*
X10816000Y6633029D01*
X10851451Y6637696D01*
X10884486Y6651379D01*
X10908800Y6670036D01*
X10934200Y6663187D01*
Y6634200D01*
X11205800D01*
Y6905800D01*
X10934200D01*
Y6876814D01*
X10908800Y6869964D01*
X10884486Y6888621D01*
X10851451Y6902304D01*
X10816000Y6906972D01*
D02*
G37*
G36*
X8504600Y6903628D02*
X8494549Y6902304D01*
X8461514Y6888621D01*
X8433146Y6866854D01*
X8411379Y6838486D01*
X8397696Y6805451D01*
X8396372Y6795400D01*
X8504600D01*
Y6903628D01*
D02*
G37*
G36*
Y6744600D02*
X8396373D01*
X8397696Y6734549D01*
X8411379Y6701514D01*
X8433146Y6673147D01*
X8461514Y6651379D01*
X8494549Y6637696D01*
X8504600Y6636373D01*
Y6744600D01*
D02*
G37*
G36*
X11235800Y6425800D02*
X11125400D01*
Y6315400D01*
X11235800D01*
Y6425800D01*
D02*
G37*
G36*
X11074600D02*
X10964200D01*
Y6315400D01*
X11074600D01*
Y6425800D01*
D02*
G37*
G36*
X7720000Y6333932D02*
X7700865Y6331413D01*
X7683034Y6324027D01*
X7667722Y6312278D01*
X7655973Y6296966D01*
X7648587Y6279135D01*
X7646068Y6260000D01*
X7648587Y6240865D01*
X7655973Y6223034D01*
X7667722Y6207722D01*
X7683034Y6195973D01*
X7700865Y6188587D01*
X7720000Y6186068D01*
X7739135Y6188587D01*
X7756966Y6195973D01*
X7772278Y6207722D01*
X7784027Y6223034D01*
X7791413Y6240865D01*
X7793932Y6260000D01*
X7791413Y6279135D01*
X7784027Y6296966D01*
X7772278Y6312278D01*
X7756966Y6324027D01*
X7739135Y6331413D01*
X7720000Y6333932D01*
D02*
G37*
G36*
X6290000Y5953932D02*
X6270865Y5951413D01*
X6253034Y5944027D01*
X6237722Y5932278D01*
X6225973Y5916966D01*
X6218587Y5899135D01*
X6216068Y5880000D01*
X6218587Y5860865D01*
X6225973Y5843034D01*
X6237722Y5827722D01*
X6253034Y5815973D01*
X6270865Y5808587D01*
X6290000Y5806068D01*
X6309135Y5808587D01*
X6326966Y5815973D01*
X6342278Y5827722D01*
X6354027Y5843034D01*
X6361413Y5860865D01*
X6363932Y5880000D01*
X6361413Y5899135D01*
X6354027Y5916966D01*
X6342278Y5932278D01*
X6326966Y5944027D01*
X6309135Y5951413D01*
X6290000Y5953932D01*
D02*
G37*
G36*
X6950000Y5693932D02*
X6930865Y5691413D01*
X6913034Y5684027D01*
X6897722Y5672278D01*
X6885973Y5656966D01*
X6878587Y5639135D01*
X6876068Y5620000D01*
X6878587Y5600865D01*
X6885973Y5583034D01*
X6897722Y5567722D01*
X6913034Y5555973D01*
X6930865Y5548587D01*
X6950000Y5546068D01*
X6969135Y5548587D01*
X6986966Y5555973D01*
X7002278Y5567722D01*
X7014027Y5583034D01*
X7021413Y5600865D01*
X7023932Y5620000D01*
X7021413Y5639135D01*
X7014027Y5656966D01*
X7002278Y5672278D01*
X6986966Y5684027D01*
X6969135Y5691413D01*
X6950000Y5693932D01*
D02*
G37*
G36*
X6419840Y5693772D02*
X6400705Y5691253D01*
X6382874Y5683867D01*
X6367562Y5672118D01*
X6355813Y5656806D01*
X6348427Y5638975D01*
X6345908Y5619840D01*
X6348427Y5600705D01*
X6355813Y5582874D01*
X6367562Y5567562D01*
X6382874Y5555813D01*
X6400705Y5548427D01*
X6419840Y5545908D01*
X6438975Y5548427D01*
X6456806Y5555813D01*
X6472118Y5567562D01*
X6483867Y5582874D01*
X6491253Y5600705D01*
X6493772Y5619840D01*
X6491253Y5638975D01*
X6483867Y5656806D01*
X6472118Y5672118D01*
X6456806Y5683867D01*
X6438975Y5691253D01*
X6419840Y5693772D01*
D02*
G37*
G36*
X7920000Y5743932D02*
X7900865Y5741413D01*
X7883034Y5734027D01*
X7867722Y5722278D01*
X7855973Y5706966D01*
X7848587Y5689135D01*
X7846068Y5670000D01*
X7848587Y5650865D01*
X7855973Y5633034D01*
X7867722Y5617722D01*
X7883034Y5605973D01*
X7900865Y5598587D01*
X7908332Y5597604D01*
X8771031Y4734905D01*
X8767844Y4702171D01*
X8767722Y4702078D01*
X8755973Y4686766D01*
X8748587Y4668935D01*
X8746068Y4649800D01*
X8748587Y4630665D01*
X8755973Y4612834D01*
X8767722Y4597522D01*
X8783034Y4585773D01*
X8800865Y4578387D01*
X8820000Y4575868D01*
X8839135Y4578387D01*
X8855150Y4585020D01*
X8855973Y4583034D01*
X8867722Y4567722D01*
X8883034Y4555973D01*
X8900865Y4548587D01*
X8920000Y4546068D01*
X8939135Y4548587D01*
X8943009Y4550192D01*
X8950993Y4545174D01*
X8951081Y4545019D01*
X8951270Y4515000D01*
X8947722Y4512278D01*
X8935973Y4496966D01*
X8928587Y4479135D01*
X8926068Y4460000D01*
X8928587Y4440865D01*
X8935973Y4423034D01*
X8947722Y4407722D01*
X8963034Y4395973D01*
X8968167Y4393846D01*
Y4366354D01*
X8963034Y4364227D01*
X8947722Y4352478D01*
X8935973Y4337166D01*
X8928587Y4319335D01*
X8926068Y4300200D01*
X8928587Y4281065D01*
X8935973Y4263234D01*
X8938454Y4260000D01*
X8935973Y4256766D01*
X8928587Y4238935D01*
X8926068Y4219800D01*
X8928587Y4200665D01*
X8935973Y4182834D01*
X8938224Y4179900D01*
X8935973Y4176966D01*
X8928587Y4159135D01*
X8926068Y4140000D01*
X8925802Y4139697D01*
X8580000D01*
X8557155Y4135153D01*
X8537788Y4122212D01*
X7935273Y3519697D01*
X7590000D01*
X7567155Y3515153D01*
X7547788Y3502212D01*
X6894239Y2848664D01*
X6885451Y2852304D01*
X6850000Y2856972D01*
X6814549Y2852304D01*
X6781514Y2838621D01*
X6753147Y2816854D01*
X6738351Y2797571D01*
X6733633Y2795765D01*
X6712367D01*
X6707650Y2797571D01*
X6692854Y2816854D01*
X6664486Y2838621D01*
X6631451Y2852304D01*
X6596000Y2856972D01*
X6560549Y2852304D01*
X6527514Y2838621D01*
X6499147Y2816854D01*
X6484351Y2797571D01*
X6479633Y2795765D01*
X6458367D01*
X6453650Y2797571D01*
X6438854Y2816854D01*
X6410486Y2838621D01*
X6377451Y2852304D01*
X6342000Y2856972D01*
X6306549Y2852304D01*
X6273514Y2838621D01*
X6245147Y2816854D01*
X6230351Y2797571D01*
X6225633Y2795765D01*
X6204367D01*
X6199650Y2797571D01*
X6184854Y2816854D01*
X6156486Y2838621D01*
X6123451Y2852304D01*
X6088000Y2856972D01*
X6052549Y2852304D01*
X6019514Y2838621D01*
X5991147Y2816854D01*
X5976351Y2797571D01*
X5971633Y2795765D01*
X5950367D01*
X5945650Y2797571D01*
X5930854Y2816854D01*
X5902486Y2838621D01*
X5869451Y2852304D01*
X5859400Y2853628D01*
Y2720000D01*
Y2586373D01*
X5869451Y2587696D01*
X5902486Y2601379D01*
X5930854Y2623147D01*
X5945650Y2642429D01*
X5950367Y2644235D01*
X5971633D01*
X5976351Y2642429D01*
X5991147Y2623147D01*
X6019514Y2601379D01*
X6052549Y2587696D01*
X6088000Y2583029D01*
X6123451Y2587696D01*
X6156486Y2601379D01*
X6184854Y2623147D01*
X6199650Y2642429D01*
X6204367Y2644235D01*
X6225633D01*
X6230351Y2642429D01*
X6245147Y2623147D01*
X6273514Y2601379D01*
X6306549Y2587696D01*
X6342000Y2583029D01*
X6377451Y2587696D01*
X6410486Y2601379D01*
X6438854Y2623147D01*
X6453650Y2642429D01*
X6458367Y2644235D01*
X6479633D01*
X6484351Y2642429D01*
X6499147Y2623147D01*
X6527514Y2601379D01*
X6560549Y2587696D01*
X6596000Y2583029D01*
X6631451Y2587696D01*
X6664486Y2601379D01*
X6692854Y2623147D01*
X6707650Y2642429D01*
X6712367Y2644235D01*
X6733633D01*
X6738351Y2642429D01*
X6753147Y2623147D01*
X6781514Y2601379D01*
X6814549Y2587696D01*
X6850000Y2583029D01*
X6885451Y2587696D01*
X6918486Y2601379D01*
X6946854Y2623147D01*
X6961650Y2642429D01*
X6966367Y2644235D01*
X6987633D01*
X6992351Y2642429D01*
X7007147Y2623147D01*
X7035514Y2601379D01*
X7068549Y2587696D01*
X7104000Y2583029D01*
X7139451Y2587696D01*
X7172486Y2601379D01*
X7200854Y2623147D01*
X7215650Y2642429D01*
X7220367Y2644235D01*
X7241633D01*
X7246351Y2642429D01*
X7261147Y2623147D01*
X7289514Y2601379D01*
X7322549Y2587696D01*
X7358000Y2583029D01*
X7393451Y2587696D01*
X7426486Y2601379D01*
X7454854Y2623147D01*
X7469650Y2642429D01*
X7474367Y2644235D01*
X7495633D01*
X7500351Y2642429D01*
X7515147Y2623147D01*
X7543514Y2601379D01*
X7576549Y2587696D01*
X7612000Y2583029D01*
X7647451Y2587696D01*
X7680486Y2601379D01*
X7708854Y2623147D01*
X7723650Y2642429D01*
X7728367Y2644235D01*
X7749633D01*
X7754351Y2642429D01*
X7769147Y2623147D01*
X7797514Y2601379D01*
X7830549Y2587696D01*
X7866000Y2583029D01*
X7901451Y2587696D01*
X7934486Y2601379D01*
X7958800Y2620036D01*
X7984200Y2613187D01*
Y2584200D01*
X8255800D01*
Y2855800D01*
X7984200D01*
Y2826813D01*
X7958800Y2819964D01*
X7934486Y2838621D01*
X7901451Y2852304D01*
X7866000Y2856972D01*
X7830549Y2852304D01*
X7797514Y2838621D01*
X7769147Y2816854D01*
X7754351Y2797571D01*
X7749633Y2795765D01*
X7728367D01*
X7723650Y2797571D01*
X7708854Y2816854D01*
X7680486Y2838621D01*
X7647451Y2852304D01*
X7612000Y2856972D01*
X7576549Y2852304D01*
X7543514Y2838621D01*
X7515147Y2816854D01*
X7500351Y2797571D01*
X7495633Y2795765D01*
X7474367D01*
X7469650Y2797571D01*
X7454854Y2816854D01*
X7426486Y2838621D01*
X7393451Y2852304D01*
X7358000Y2856972D01*
X7322549Y2852304D01*
X7289514Y2838621D01*
X7261147Y2816854D01*
X7246351Y2797571D01*
X7241633Y2795765D01*
X7220367D01*
X7215650Y2797571D01*
X7200854Y2816854D01*
X7172486Y2838621D01*
X7139451Y2852304D01*
X7106931Y2856586D01*
X7101364Y2865021D01*
X7095956Y2881532D01*
X7614727Y3400303D01*
X7960000D01*
X7982845Y3404847D01*
X8002212Y3417788D01*
X8604728Y4020303D01*
X8957344D01*
X8958587Y4010865D01*
X8965973Y3993034D01*
X8977722Y3977722D01*
X8986225Y3971197D01*
X8986068Y3970000D01*
X8988587Y3950865D01*
X8995973Y3933034D01*
X9004099Y3922443D01*
X8998587Y3909135D01*
X8996068Y3890000D01*
X8998587Y3870865D01*
X9005973Y3853034D01*
X9006012Y3852982D01*
X9007685Y3822948D01*
X9003424Y3816677D01*
X8995973Y3806966D01*
X8988587Y3789135D01*
X8986068Y3770000D01*
X8988587Y3750865D01*
X8995973Y3733034D01*
X9007722Y3717722D01*
X9023034Y3705973D01*
X9040865Y3698587D01*
X9060000Y3696068D01*
X9079135Y3698587D01*
X9096966Y3705973D01*
X9112278Y3717722D01*
X9124027Y3733034D01*
X9131413Y3750865D01*
X9133932Y3770000D01*
X9131413Y3789135D01*
X9124027Y3806966D01*
X9123988Y3807018D01*
X9122315Y3837052D01*
X9126576Y3843323D01*
X9134027Y3853034D01*
X9141413Y3870865D01*
X9143932Y3890000D01*
X9141413Y3909135D01*
X9134027Y3926966D01*
X9125901Y3937557D01*
X9131413Y3950865D01*
X9133932Y3970000D01*
X9131413Y3989135D01*
X9124027Y4006966D01*
X9112278Y4022278D01*
X9103775Y4028803D01*
X9103932Y4030000D01*
X9101413Y4049135D01*
X9094027Y4066966D01*
X9092883Y4068458D01*
X9115673Y4091249D01*
X9128614Y4110616D01*
X9133158Y4133461D01*
Y4174819D01*
X9139456Y4183027D01*
X9144608Y4195465D01*
X9150106Y4196703D01*
X9165294Y4196707D01*
X9170824Y4195463D01*
X9175973Y4183034D01*
X9187722Y4167722D01*
X9203034Y4155973D01*
X9220865Y4148587D01*
X9240000Y4146068D01*
X9259135Y4148587D01*
X9276966Y4155973D01*
X9289774Y4165801D01*
X9361997Y4093578D01*
X9350207Y4073261D01*
X9348106Y4071549D01*
X9330000Y4073932D01*
X9310865Y4071413D01*
X9293034Y4064027D01*
X9277722Y4052278D01*
X9265973Y4036966D01*
X9258587Y4019135D01*
X9256068Y4000000D01*
X9258587Y3980865D01*
X9265973Y3963034D01*
X9269718Y3958153D01*
X9275333Y3940000D01*
X9269718Y3921847D01*
X9265973Y3916966D01*
X9258587Y3899135D01*
X9256068Y3880000D01*
X9258587Y3860865D01*
X9265973Y3843034D01*
X9277722Y3827722D01*
Y3802278D01*
X9265973Y3786966D01*
X9258587Y3769135D01*
X9256068Y3750000D01*
X9258587Y3730865D01*
X9265973Y3713034D01*
X9277722Y3697722D01*
X9293034Y3685973D01*
X9298408Y3683747D01*
Y3656254D01*
X9293034Y3654027D01*
X9277722Y3642278D01*
X9265973Y3626966D01*
X9258587Y3609135D01*
X9256068Y3590000D01*
X9258587Y3570865D01*
X9265973Y3553034D01*
X9277722Y3537722D01*
X9293034Y3525973D01*
X9310865Y3518587D01*
X9330000Y3516068D01*
X9349135Y3518587D01*
X9366966Y3525973D01*
X9382278Y3537722D01*
X9394027Y3553034D01*
X9401413Y3570865D01*
X9403932Y3590000D01*
X9401413Y3609135D01*
X9394882Y3624903D01*
X9397855Y3633297D01*
X9408137Y3650303D01*
X9685487D01*
X9704263Y3624903D01*
X9703618Y3620000D01*
X9706137Y3600865D01*
X9713523Y3583034D01*
X9725272Y3567722D01*
X9740584Y3555973D01*
X9758415Y3548587D01*
X9777550Y3546068D01*
X9780228Y3546420D01*
X9785773Y3533034D01*
X9797522Y3517722D01*
X9812834Y3505973D01*
X9830665Y3498587D01*
X9849800Y3496068D01*
X9868935Y3498587D01*
X9886766Y3505973D01*
X9902078Y3517722D01*
X9913827Y3533034D01*
X9921213Y3550865D01*
X9923732Y3570000D01*
X9921213Y3589135D01*
X9913827Y3606966D01*
X9902078Y3622278D01*
X9898657Y3624903D01*
X9907280Y3650303D01*
X10159131D01*
X10161911Y3629186D01*
X10172068Y3604665D01*
X10181787Y3592000D01*
X10172068Y3579335D01*
X10161911Y3554814D01*
X10158447Y3528500D01*
X10161911Y3502186D01*
X10172068Y3477665D01*
X10181787Y3465000D01*
X10172068Y3452335D01*
X10161911Y3427814D01*
X10158447Y3401500D01*
X10161911Y3375186D01*
X10172068Y3350665D01*
X10181787Y3338000D01*
X10172068Y3325335D01*
X10161911Y3300814D01*
X10158447Y3274500D01*
X10161560Y3250858D01*
X10159316Y3248300D01*
X10159317D01*
Y3206208D01*
X9624022D01*
X9621368Y3208244D01*
X9603537Y3215630D01*
X9584402Y3218149D01*
X9565267Y3215630D01*
X9561487Y3214064D01*
X9547084Y3229713D01*
X9544673Y3234592D01*
X9551413Y3250865D01*
X9552113Y3256179D01*
X9564174Y3262191D01*
X9578887Y3264948D01*
X9590584Y3255973D01*
X9608415Y3248587D01*
X9627550Y3246068D01*
X9646685Y3248587D01*
X9664516Y3255973D01*
X9679828Y3267722D01*
X9691577Y3283034D01*
X9698963Y3300865D01*
X9701482Y3320000D01*
X9698963Y3339135D01*
X9691577Y3356966D01*
X9679828Y3372278D01*
X9664516Y3384027D01*
X9646685Y3391413D01*
X9627550Y3393932D01*
X9608415Y3391413D01*
X9590584Y3384027D01*
X9575272Y3372278D01*
X9563523Y3356966D01*
X9556137Y3339135D01*
X9555437Y3333821D01*
X9543376Y3327809D01*
X9528663Y3325052D01*
X9516966Y3334027D01*
X9499135Y3341413D01*
X9480000Y3343932D01*
X9460865Y3341413D01*
X9443034Y3334027D01*
X9427722Y3322278D01*
X9415973Y3306966D01*
X9408587Y3289135D01*
X9406068Y3270000D01*
X9408587Y3250865D01*
X9415973Y3233034D01*
X9427722Y3217722D01*
X9443034Y3205973D01*
X9460865Y3198587D01*
X9480000Y3196068D01*
X9499135Y3198587D01*
X9502915Y3200152D01*
X9517318Y3184503D01*
X9519729Y3179624D01*
X9512989Y3163352D01*
X9510470Y3144216D01*
X9512989Y3125081D01*
X9520375Y3107250D01*
X9532124Y3091938D01*
X9547436Y3080189D01*
X9565267Y3072803D01*
X9581260Y3070698D01*
X9584369Y3067219D01*
X9586927Y3062839D01*
X9591821Y3048411D01*
X9579346Y3025417D01*
X9561638Y3020415D01*
X9553220Y3021051D01*
X9552278Y3022278D01*
X9536966Y3034027D01*
X9519135Y3041413D01*
X9500000Y3043932D01*
X9480865Y3041413D01*
X9463034Y3034027D01*
X9447722Y3022278D01*
X9435973Y3006966D01*
X9428587Y2989135D01*
X9426068Y2970000D01*
X9428587Y2950865D01*
X9435973Y2933034D01*
X9447722Y2917722D01*
X9463034Y2905973D01*
X9480865Y2898587D01*
X9500000Y2896068D01*
X9519135Y2898587D01*
X9536966Y2905973D01*
X9552278Y2917722D01*
X9564027Y2933034D01*
X9568567Y2943993D01*
X9588362Y2949585D01*
X9596780Y2948949D01*
X9597722Y2947722D01*
X9613034Y2935973D01*
X9630865Y2928587D01*
X9650000Y2926068D01*
X9669135Y2928587D01*
X9686966Y2935973D01*
X9702278Y2947722D01*
X9714027Y2963034D01*
X9721413Y2980865D01*
X9723932Y3000000D01*
X9721413Y3019135D01*
X9714027Y3036966D01*
X9702278Y3052278D01*
X9696352Y3056825D01*
X9704974Y3082225D01*
X10159317D01*
Y3046700D01*
X10360917D01*
Y3248300D01*
X10360917D01*
X10358674Y3250858D01*
X10361786Y3274500D01*
X10358322Y3300814D01*
X10348165Y3325335D01*
X10338447Y3338000D01*
X10348165Y3350665D01*
X10358322Y3375186D01*
X10361786Y3401500D01*
X10358322Y3427814D01*
X10348165Y3452335D01*
X10338447Y3465000D01*
X10348165Y3477665D01*
X10358322Y3502186D01*
X10361786Y3528500D01*
X10358322Y3554814D01*
X10348165Y3579335D01*
X10338447Y3592000D01*
X10348165Y3604665D01*
X10358322Y3629186D01*
X10361786Y3655500D01*
X10358322Y3681814D01*
X10348165Y3706335D01*
X10338447Y3719000D01*
X10348165Y3731665D01*
X10358322Y3756186D01*
X10361786Y3782500D01*
X10358322Y3808814D01*
X10348165Y3833335D01*
X10338447Y3846000D01*
X10348165Y3858665D01*
X10358322Y3883186D01*
X10361786Y3909500D01*
X10358322Y3935814D01*
X10348165Y3960335D01*
X10332008Y3981391D01*
X10310951Y3997549D01*
X10286431Y4007705D01*
X10260117Y4011170D01*
X10233802Y4007705D01*
X10209282Y3997549D01*
X10188225Y3981391D01*
X10172068Y3960335D01*
X10161911Y3935814D01*
X10158447Y3909500D01*
X10161911Y3883186D01*
X10172068Y3858665D01*
X10181787Y3846000D01*
X10172068Y3833335D01*
X10161911Y3808814D01*
X10158447Y3782500D01*
X10147219Y3769697D01*
X9842656D01*
X9841413Y3779135D01*
X9834027Y3796966D01*
X9822278Y3812278D01*
X9806966Y3824027D01*
X9789135Y3831413D01*
X9770000Y3833932D01*
X9750865Y3831413D01*
X9733034Y3824027D01*
X9717722Y3812278D01*
X9705973Y3796966D01*
X9698587Y3779135D01*
X9697344Y3769697D01*
X9662262D01*
X9643487Y3795097D01*
X9644132Y3800000D01*
X9641613Y3819135D01*
X9634227Y3836966D01*
X9634114Y3837114D01*
X9632323Y3866965D01*
X9636650Y3873420D01*
X9644027Y3883034D01*
X9651413Y3900865D01*
X9653932Y3920000D01*
X9651413Y3939135D01*
X9644027Y3956966D01*
X9632278Y3972278D01*
X9616966Y3984027D01*
X9599135Y3991413D01*
X9592083Y3992342D01*
X9499697Y4084727D01*
Y4100000D01*
X9495153Y4122845D01*
X9482212Y4142212D01*
X9458501Y4165924D01*
X9470428Y4185359D01*
X9495302Y4184654D01*
X9495973Y4183034D01*
X9507722Y4167722D01*
X9523034Y4155973D01*
X9540865Y4148587D01*
X9560000Y4146068D01*
X9566068Y4140000D01*
X9568587Y4120865D01*
X9575973Y4103034D01*
X9587722Y4087722D01*
X9603034Y4075973D01*
X9620865Y4068587D01*
X9640000Y4066068D01*
X9653690Y4067870D01*
X9666235Y4055772D01*
X9671524Y4046226D01*
X9668587Y4039135D01*
X9666068Y4020000D01*
X9668587Y4000865D01*
X9675973Y3983034D01*
X9687722Y3967722D01*
X9703034Y3955973D01*
X9720865Y3948587D01*
X9740000Y3946068D01*
X9759135Y3948587D01*
X9776966Y3955973D01*
X9786518Y3963302D01*
X9792654Y3967633D01*
X9816902Y3961915D01*
X9818961Y3960771D01*
X9833034Y3949973D01*
X9850865Y3942587D01*
X9870000Y3940068D01*
X9889135Y3942587D01*
X9906966Y3949973D01*
X9922278Y3961722D01*
X9934027Y3977034D01*
X9941413Y3994865D01*
X9943932Y4014000D01*
X9941413Y4033135D01*
X9934027Y4050966D01*
X9922278Y4066278D01*
X9906966Y4078027D01*
X9889135Y4085413D01*
X9870000Y4087932D01*
X9850865Y4085413D01*
X9833034Y4078027D01*
X9823482Y4070698D01*
X9817346Y4066367D01*
X9797048Y4071153D01*
X9780697Y4093844D01*
X9785994Y4107781D01*
X9791413Y4120865D01*
X9793932Y4140000D01*
X9791413Y4159135D01*
X9784027Y4176966D01*
X9772278Y4192278D01*
X9768731Y4195000D01*
X9768920Y4225020D01*
X9769007Y4225173D01*
X9776992Y4230191D01*
X9780865Y4228587D01*
X9800000Y4226068D01*
X9819135Y4228587D01*
X9836966Y4235973D01*
X9840000Y4238301D01*
X9843034Y4235973D01*
X9860865Y4228587D01*
X9880000Y4226068D01*
X9899135Y4228587D01*
X9902261Y4229882D01*
X9925973Y4233034D01*
X9937722Y4217722D01*
X9953034Y4205973D01*
X9970865Y4198587D01*
X9990000Y4196068D01*
X10009135Y4198587D01*
X10026966Y4205973D01*
X10042278Y4217722D01*
X10054027Y4233034D01*
X10061413Y4250865D01*
X10063932Y4270000D01*
X10061413Y4289135D01*
X10054027Y4306966D01*
X10046747Y4316454D01*
X10063034Y4335973D01*
X10080865Y4328587D01*
X10100000Y4326068D01*
X10119135Y4328587D01*
X10136966Y4335973D01*
X10152278Y4347722D01*
X10164027Y4363034D01*
X10171413Y4380865D01*
X10173932Y4400000D01*
X10171413Y4419135D01*
X10164027Y4436966D01*
X10152278Y4452278D01*
X10136966Y4464027D01*
X10119135Y4471413D01*
X10100000Y4473932D01*
X10080865Y4471413D01*
X10063034Y4464027D01*
X10047722Y4452278D01*
X10035973Y4436966D01*
X10028587Y4419135D01*
X10026068Y4400000D01*
X10028587Y4380865D01*
X10035973Y4363034D01*
X10043253Y4353546D01*
X10026966Y4334027D01*
X10009135Y4341413D01*
X9990000Y4343932D01*
X9970865Y4341413D01*
X9967739Y4340118D01*
X9944027Y4336966D01*
X9932278Y4352278D01*
X9916966Y4364027D01*
X9899135Y4371413D01*
X9880000Y4373932D01*
X9860865Y4371413D01*
X9843034Y4364027D01*
X9840000Y4361699D01*
X9836966Y4364027D01*
X9819135Y4371413D01*
X9800000Y4373932D01*
X9780865Y4371413D01*
X9776992Y4369809D01*
X9769007Y4374827D01*
X9768920Y4374980D01*
X9768731Y4405000D01*
X9772278Y4407722D01*
X9784027Y4423034D01*
X9791413Y4440865D01*
X9793932Y4460000D01*
X9791413Y4479135D01*
X9784027Y4496966D01*
X9781700Y4500000D01*
X9784027Y4503034D01*
X9791413Y4520865D01*
X9793932Y4540000D01*
X9791413Y4559135D01*
X9784027Y4576966D01*
X9772278Y4592278D01*
X9756966Y4604027D01*
X9739135Y4611413D01*
X9720000Y4613932D01*
X9700865Y4611413D01*
X9696992Y4609809D01*
X9689007Y4614827D01*
X9688920Y4614980D01*
X9688731Y4645000D01*
X9692278Y4647722D01*
X9704027Y4663034D01*
X9711413Y4680865D01*
X9713932Y4700000D01*
X9711413Y4719135D01*
X9704027Y4736966D01*
X9692278Y4752278D01*
X9676966Y4764027D01*
X9659135Y4771413D01*
X9640000Y4773932D01*
X9620865Y4771413D01*
X9603034Y4764027D01*
X9587722Y4752278D01*
X9575973Y4736966D01*
X9568587Y4719135D01*
X9566068Y4700000D01*
X9568587Y4680865D01*
X9575973Y4663034D01*
X9587722Y4647722D01*
X9603034Y4635973D01*
X9608409Y4633746D01*
Y4606254D01*
X9603034Y4604027D01*
X9587722Y4592278D01*
X9575973Y4576966D01*
X9568587Y4559135D01*
X9566068Y4540000D01*
X9568587Y4520865D01*
X9575973Y4503034D01*
X9587722Y4487722D01*
X9603034Y4475973D01*
X9608409Y4473746D01*
Y4446254D01*
X9603034Y4444027D01*
X9587722Y4432278D01*
X9575973Y4416966D01*
X9573746Y4411592D01*
X9546254D01*
X9544027Y4416966D01*
X9532278Y4432278D01*
X9516966Y4444027D01*
X9499135Y4451413D01*
X9480000Y4453932D01*
X9460865Y4451413D01*
X9443034Y4444027D01*
X9441462Y4442821D01*
X9438902Y4444785D01*
X9421071Y4452171D01*
X9401936Y4454690D01*
X9382801Y4452171D01*
X9364970Y4444785D01*
X9360474Y4441335D01*
X9356966Y4444027D01*
X9339135Y4451413D01*
X9338433Y4451506D01*
X9318438Y4458438D01*
X9311506Y4478434D01*
X9311413Y4479135D01*
X9304027Y4496966D01*
X9292278Y4512278D01*
X9276966Y4524027D01*
X9259135Y4531413D01*
X9240000Y4533932D01*
X9231899Y4558485D01*
X9231813Y4559135D01*
X9224427Y4576966D01*
X9212678Y4592278D01*
X9197366Y4604027D01*
X9191791Y4606336D01*
Y4633829D01*
X9196966Y4635973D01*
X9212278Y4647722D01*
X9224027Y4663034D01*
X9226825Y4669789D01*
X9230100Y4671462D01*
X9254506Y4670243D01*
X9258423Y4660788D01*
X9270172Y4645476D01*
X9285484Y4633727D01*
X9303315Y4626341D01*
X9322450Y4623822D01*
X9341585Y4626341D01*
X9359416Y4633727D01*
X9374728Y4645476D01*
X9386478Y4660788D01*
X9393863Y4678619D01*
X9396383Y4697754D01*
X9393863Y4716889D01*
X9386478Y4734720D01*
X9374728Y4750032D01*
X9359416Y4761781D01*
X9350369Y4765529D01*
X9350195Y4766198D01*
X9352054Y4792323D01*
X9362066Y4796470D01*
X9377378Y4808220D01*
X9389128Y4823532D01*
X9396513Y4841363D01*
X9400000Y4866068D01*
X9419135Y4868587D01*
X9436966Y4875973D01*
X9440000Y4878301D01*
X9443034Y4875973D01*
X9460865Y4868587D01*
X9480000Y4866068D01*
X9499135Y4868587D01*
X9516966Y4875973D01*
X9520000Y4878301D01*
X9523034Y4875973D01*
X9540865Y4868587D01*
X9560000Y4866068D01*
X9579135Y4868587D01*
X9596966Y4875973D01*
X9600000Y4878301D01*
X9603034Y4875973D01*
X9620865Y4868587D01*
X9621567Y4868494D01*
X9646068Y4860000D01*
X9648587Y4840865D01*
X9655973Y4823034D01*
X9667722Y4807722D01*
X9683034Y4795973D01*
X9700865Y4788587D01*
X9720000Y4786068D01*
X9739135Y4788587D01*
X9756966Y4795973D01*
X9772278Y4807722D01*
X9784027Y4823034D01*
X9791413Y4840865D01*
X9793932Y4860000D01*
X9791413Y4879135D01*
X9784027Y4896966D01*
X9772278Y4912278D01*
X9768731Y4915000D01*
X9768920Y4945020D01*
X9769007Y4945173D01*
X9776992Y4950191D01*
X9780865Y4948587D01*
X9800000Y4946068D01*
X9819135Y4948587D01*
X9836966Y4955973D01*
X9852278Y4967722D01*
X9864027Y4983034D01*
X9871413Y5000865D01*
X9873932Y5020000D01*
X9871413Y5039135D01*
X9864027Y5056966D01*
X9852278Y5072278D01*
X9836966Y5084027D01*
X9819135Y5091413D01*
X9800000Y5093932D01*
X9791506Y5118434D01*
X9791413Y5119135D01*
X9784027Y5136966D01*
X9772278Y5152278D01*
X9756967Y5164027D01*
X9744389Y5185178D01*
X9747610Y5193617D01*
X9751613Y5203280D01*
X9754132Y5222416D01*
X9751613Y5241551D01*
X9744227Y5259382D01*
X9732478Y5274694D01*
X9717166Y5286443D01*
X9699335Y5293829D01*
X9680200Y5296348D01*
X9661065Y5293829D01*
X9643234Y5286443D01*
X9633526Y5278994D01*
X9626966Y5284027D01*
X9609135Y5291413D01*
X9590000Y5293932D01*
X9570865Y5291413D01*
X9553034Y5284027D01*
X9537722Y5272278D01*
X9525973Y5256966D01*
X9524113Y5252476D01*
X9495120Y5248535D01*
X9492261Y5252261D01*
X9476950Y5264011D01*
X9459118Y5271396D01*
X9439983Y5273916D01*
X9420848Y5271396D01*
X9419483Y5270831D01*
X9397686Y5275880D01*
X9387060Y5298935D01*
X9396942Y5321821D01*
X9406966Y5325973D01*
X9422278Y5337722D01*
X9434027Y5353034D01*
X9441413Y5370865D01*
X9443932Y5390000D01*
X9459301Y5409289D01*
X9563109Y5419120D01*
X9577517Y5413152D01*
X9596652Y5410633D01*
X9615787Y5413152D01*
X9633619Y5420538D01*
X9648930Y5432287D01*
X9660680Y5447599D01*
X9668065Y5465430D01*
X9670585Y5484565D01*
X9668065Y5503700D01*
X9660680Y5521532D01*
X9648930Y5536843D01*
X9633619Y5548593D01*
X9615787Y5555978D01*
X9596652Y5558498D01*
X9577517Y5555978D01*
X9559686Y5548593D01*
X9551867Y5542593D01*
X9367581Y5525141D01*
X9358746Y5522497D01*
X9349703Y5520698D01*
X9347243Y5519054D01*
X9344409Y5518206D01*
X9337259Y5512383D01*
X9329591Y5507260D01*
X9125458Y5303127D01*
X9101991Y5312847D01*
Y5519342D01*
X9107453Y5526460D01*
X9114839Y5544291D01*
X9117358Y5563426D01*
X9114839Y5582561D01*
X9107453Y5600392D01*
X9095704Y5615704D01*
X9080392Y5627453D01*
X9062561Y5634839D01*
X9043426Y5637358D01*
X9024291Y5634839D01*
X9006460Y5627453D01*
X8991148Y5615704D01*
X8979398Y5600392D01*
X8972013Y5582561D01*
X8969493Y5563426D01*
X8972013Y5544291D01*
X8978009Y5529814D01*
Y5442063D01*
X8969245Y5435817D01*
X8952609Y5430920D01*
X8942000Y5439061D01*
X8924169Y5446447D01*
X8905033Y5448966D01*
X8885898Y5446447D01*
X8875970Y5442334D01*
X8874044Y5446983D01*
X8862295Y5462295D01*
X8846983Y5474044D01*
X8829152Y5481430D01*
X8810017Y5483949D01*
X8790882Y5481430D01*
X8784847Y5478930D01*
X8782278Y5482278D01*
X8766966Y5494027D01*
X8749135Y5501413D01*
X8730000Y5503932D01*
X8710865Y5501413D01*
X8693034Y5494027D01*
X8677722Y5482278D01*
X8665973Y5466966D01*
X8658587Y5449135D01*
X8656068Y5430000D01*
X8658587Y5410865D01*
X8665973Y5393034D01*
X8677722Y5377722D01*
X8693034Y5365973D01*
X8710865Y5358587D01*
X8726628Y5356512D01*
X8733669Y5346775D01*
X8739616Y5331715D01*
X8735973Y5326966D01*
X8728587Y5309135D01*
X8726068Y5290000D01*
X8728587Y5270865D01*
X8735973Y5253034D01*
X8747722Y5237722D01*
X8763034Y5225973D01*
X8780865Y5218587D01*
X8800000Y5216068D01*
X8819135Y5218587D01*
X8836966Y5225973D01*
X8852278Y5237722D01*
X8864027Y5253034D01*
X8871413Y5270865D01*
X8872819Y5281545D01*
X8879471Y5292773D01*
X8897967Y5302031D01*
X8905033Y5301101D01*
X8924169Y5303620D01*
X8942000Y5311006D01*
X8952609Y5319147D01*
X8969245Y5314250D01*
X8978009Y5308004D01*
Y5249620D01*
X8975973Y5246966D01*
X8968587Y5229135D01*
X8966068Y5210000D01*
X8968587Y5190865D01*
X8975973Y5173034D01*
X8987722Y5157722D01*
X9003034Y5145973D01*
X9020865Y5138587D01*
X9030343Y5137339D01*
X9037722Y5127722D01*
X9053034Y5115973D01*
X9055034Y5115144D01*
X9055525Y5113148D01*
X9053409Y5088325D01*
X9043034Y5084027D01*
X9027722Y5072278D01*
X9015973Y5056966D01*
X9008587Y5039135D01*
X9006068Y5020000D01*
X9008587Y5000865D01*
X9010191Y4996992D01*
X9005173Y4989007D01*
X9005020Y4988920D01*
X8975000Y4988731D01*
X8972278Y4992278D01*
X8956966Y5004027D01*
X8939135Y5011413D01*
X8920000Y5013932D01*
X8900865Y5011413D01*
X8883034Y5004027D01*
X8878404Y5000475D01*
X8876966Y5001577D01*
X8859135Y5008963D01*
X8840000Y5011482D01*
X8820865Y5008963D01*
X8814385Y5006279D01*
X8801988Y5002424D01*
X8786346Y5015089D01*
X8783041Y5018252D01*
X8772278Y5032278D01*
X8756966Y5044027D01*
X8739135Y5051413D01*
X8720000Y5053932D01*
X8700865Y5051413D01*
X8683034Y5044027D01*
X8667722Y5032278D01*
X8643381Y5030683D01*
X8271131Y5402933D01*
X8282995Y5426990D01*
X8290000Y5426068D01*
X8309135Y5428587D01*
X8326966Y5435973D01*
X8342278Y5447722D01*
X8354027Y5463034D01*
X8361413Y5480865D01*
X8363932Y5500000D01*
X8361413Y5519135D01*
X8354027Y5536966D01*
X8342278Y5552278D01*
X8326966Y5564027D01*
X8309135Y5571413D01*
X8290000Y5573932D01*
X8270865Y5571413D01*
X8253034Y5564027D01*
X8237722Y5552278D01*
X8225973Y5536966D01*
X8218587Y5519135D01*
X8216068Y5500000D01*
X8216990Y5492995D01*
X8192933Y5481132D01*
X7992396Y5681668D01*
X7991413Y5689135D01*
X7984027Y5706966D01*
X7972278Y5722278D01*
X7956966Y5734027D01*
X7939135Y5741413D01*
X7920000Y5743932D01*
D02*
G37*
G36*
X6630000Y5403932D02*
X6610865Y5401413D01*
X6593034Y5394027D01*
X6577722Y5382278D01*
X6565973Y5366966D01*
X6558587Y5349135D01*
X6556068Y5330000D01*
X6558587Y5310865D01*
X6565973Y5293034D01*
X6577722Y5277722D01*
X6593034Y5265973D01*
X6610865Y5258587D01*
X6630000Y5256068D01*
X6649135Y5258587D01*
X6666966Y5265973D01*
X6682278Y5277722D01*
X6694027Y5293034D01*
X6701413Y5310865D01*
X6703932Y5330000D01*
X6701413Y5349135D01*
X6694027Y5366966D01*
X6682278Y5382278D01*
X6666966Y5394027D01*
X6649135Y5401413D01*
X6630000Y5403932D01*
D02*
G37*
G36*
X7220250Y5373682D02*
X7201115Y5371163D01*
X7183284Y5363777D01*
X7167972Y5352028D01*
X7156223Y5336716D01*
X7148837Y5318885D01*
X7146318Y5299750D01*
X7148837Y5280615D01*
X7156223Y5262784D01*
X7167972Y5247472D01*
X7183284Y5235723D01*
X7201115Y5228337D01*
X7220250Y5225818D01*
X7239385Y5228337D01*
X7257216Y5235723D01*
X7272528Y5247472D01*
X7284277Y5262784D01*
X7291663Y5280615D01*
X7294182Y5299750D01*
X7291663Y5318885D01*
X7284277Y5336716D01*
X7272528Y5352028D01*
X7257216Y5363777D01*
X7239385Y5371163D01*
X7220250Y5373682D01*
D02*
G37*
G36*
X6250000Y5343932D02*
X6230865Y5341413D01*
X6213034Y5334027D01*
X6197722Y5322278D01*
X6185973Y5306966D01*
X6178587Y5289135D01*
X6176068Y5270000D01*
X6178587Y5250865D01*
X6185973Y5233034D01*
X6197722Y5217722D01*
X6213034Y5205973D01*
X6230865Y5198587D01*
X6250000Y5196068D01*
X6269135Y5198587D01*
X6286966Y5205973D01*
X6302278Y5217722D01*
X6314027Y5233034D01*
X6321413Y5250865D01*
X6323932Y5270000D01*
X6321413Y5289135D01*
X6314027Y5306966D01*
X6302278Y5322278D01*
X6286966Y5334027D01*
X6269135Y5341413D01*
X6250000Y5343932D01*
D02*
G37*
G36*
X8150000Y5253932D02*
X8130865Y5251413D01*
X8113034Y5244027D01*
X8097722Y5232278D01*
X8085973Y5216966D01*
X8078587Y5199135D01*
X8076068Y5180000D01*
X8078587Y5160865D01*
X8085973Y5143034D01*
X8097722Y5127722D01*
X8113034Y5115973D01*
X8130865Y5108587D01*
X8150000Y5106068D01*
X8169135Y5108587D01*
X8186966Y5115973D01*
X8202278Y5127722D01*
X8214027Y5143034D01*
X8221413Y5160865D01*
X8223932Y5180000D01*
X8221413Y5199135D01*
X8214027Y5216966D01*
X8202278Y5232278D01*
X8186966Y5244027D01*
X8169135Y5251413D01*
X8150000Y5253932D01*
D02*
G37*
G36*
X7660000Y5293932D02*
X7640865Y5291413D01*
X7623034Y5284027D01*
X7607722Y5272278D01*
X7595973Y5256966D01*
X7588587Y5239135D01*
X7586068Y5220000D01*
X7588587Y5200865D01*
X7595973Y5183034D01*
X7598301Y5180000D01*
X7595973Y5176966D01*
X7588587Y5159135D01*
X7586068Y5140000D01*
X7588587Y5120865D01*
X7595973Y5103034D01*
X7598301Y5100000D01*
X7595973Y5096966D01*
X7588587Y5079135D01*
X7586068Y5060000D01*
X7588587Y5040865D01*
X7595973Y5023034D01*
X7607722Y5007722D01*
X7623034Y4995973D01*
X7640865Y4988587D01*
X7660000Y4986068D01*
X7679135Y4988587D01*
X7696966Y4995973D01*
X7712278Y5007722D01*
X7724027Y5023034D01*
X7731413Y5040865D01*
X7733932Y5060000D01*
X7731413Y5079135D01*
X7724027Y5096966D01*
X7721699Y5100000D01*
X7724027Y5103034D01*
X7731413Y5120865D01*
X7733932Y5140000D01*
X7731413Y5159135D01*
X7724027Y5176966D01*
X7721699Y5180000D01*
X7724027Y5183034D01*
X7731413Y5200865D01*
X7733932Y5220000D01*
X7731413Y5239135D01*
X7724027Y5256966D01*
X7712278Y5272278D01*
X7696966Y5284027D01*
X7679135Y5291413D01*
X7660000Y5293932D01*
D02*
G37*
G36*
X8060000Y5013932D02*
X8040865Y5011413D01*
X8023034Y5004027D01*
X8007722Y4992278D01*
X7995973Y4976966D01*
X7988587Y4959135D01*
X7986068Y4940000D01*
X7988587Y4920865D01*
X7995973Y4903034D01*
X8007722Y4887722D01*
X8023034Y4875973D01*
X8040865Y4868587D01*
X8060000Y4866068D01*
X8079135Y4868587D01*
X8096966Y4875973D01*
X8112278Y4887722D01*
X8124027Y4903034D01*
X8131413Y4920865D01*
X8133932Y4940000D01*
X8131413Y4959135D01*
X8124027Y4976966D01*
X8112278Y4992278D01*
X8096966Y5004027D01*
X8079135Y5011413D01*
X8060000Y5013932D01*
D02*
G37*
G36*
X7880000D02*
X7860865Y5011413D01*
X7843034Y5004027D01*
X7827722Y4992278D01*
X7815973Y4976966D01*
X7808587Y4959135D01*
X7806068Y4940000D01*
X7808587Y4920865D01*
X7815973Y4903034D01*
X7827722Y4887722D01*
X7843034Y4875973D01*
X7860865Y4868587D01*
X7880000Y4866068D01*
X7899135Y4868587D01*
X7916966Y4875973D01*
X7932278Y4887722D01*
X7944027Y4903034D01*
X7951413Y4920865D01*
X7953932Y4940000D01*
X7951413Y4959135D01*
X7944027Y4976966D01*
X7932278Y4992278D01*
X7916966Y5004027D01*
X7899135Y5011413D01*
X7880000Y5013932D01*
D02*
G37*
G36*
X10040000Y6449697D02*
X8290000D01*
X8267155Y6445153D01*
X8247788Y6432212D01*
X7414248Y5598672D01*
X7403034Y5594027D01*
X7387722Y5582278D01*
X7375973Y5566966D01*
X7368587Y5549135D01*
X7366068Y5530000D01*
X7368587Y5510865D01*
X7375973Y5493034D01*
X7387722Y5477722D01*
X7403034Y5465973D01*
X7420865Y5458587D01*
X7440000Y5456068D01*
X7459135Y5458587D01*
X7476966Y5465973D01*
X7492278Y5477722D01*
X7504027Y5493034D01*
X7511413Y5510865D01*
X7513858Y5529433D01*
X8314727Y6330303D01*
X8342521D01*
X8351143Y6304903D01*
X8347722Y6302278D01*
X8335973Y6286966D01*
X8328587Y6269135D01*
X8326068Y6250000D01*
X8328587Y6230865D01*
X8335973Y6213034D01*
X8347722Y6197722D01*
X8363034Y6185973D01*
X8380865Y6178587D01*
X8400000Y6176068D01*
X8419135Y6178587D01*
X8436966Y6185973D01*
X8452278Y6197722D01*
X8464027Y6213034D01*
X8471413Y6230865D01*
X8473932Y6250000D01*
X8471413Y6269135D01*
X8464027Y6286966D01*
X8452278Y6302278D01*
X8448857Y6304903D01*
X8457479Y6330303D01*
X10015273D01*
X10510303Y5835273D01*
Y4942609D01*
X10505973Y4936966D01*
X10498587Y4919135D01*
X10496068Y4900000D01*
X10498587Y4880865D01*
X10505973Y4863034D01*
X10517722Y4847722D01*
X10533034Y4835973D01*
X10550865Y4828587D01*
X10570000Y4826068D01*
X10589135Y4828587D01*
X10606966Y4835973D01*
X10622278Y4847722D01*
X10634027Y4863034D01*
X10641413Y4880865D01*
X10643932Y4900000D01*
X10641413Y4919135D01*
X10634027Y4936966D01*
X10629697Y4942609D01*
Y5860000D01*
X10625153Y5882845D01*
X10612212Y5902212D01*
X10082212Y6432212D01*
X10062845Y6445153D01*
X10040000Y6449697D01*
D02*
G37*
G36*
X10030000Y4933932D02*
X10010865Y4931413D01*
X9993034Y4924027D01*
X9977722Y4912278D01*
X9965973Y4896966D01*
X9958587Y4879135D01*
X9956068Y4860000D01*
X9958587Y4840865D01*
X9965973Y4823034D01*
X9977722Y4807722D01*
X9983089Y4803604D01*
X9985511Y4776332D01*
X9983945Y4772245D01*
X9983481Y4771888D01*
X9971731Y4756576D01*
X9964346Y4738745D01*
X9961826Y4719610D01*
X9964346Y4700475D01*
X9971731Y4682644D01*
X9983481Y4667332D01*
X9998793Y4655583D01*
X10016624Y4648197D01*
X10035759Y4645678D01*
X10054894Y4648197D01*
X10072725Y4655583D01*
X10088037Y4667332D01*
X10099786Y4682644D01*
X10107172Y4700475D01*
X10109691Y4719610D01*
X10107172Y4738745D01*
X10099786Y4756576D01*
X10088037Y4771888D01*
X10082670Y4776006D01*
X10080248Y4803278D01*
X10081813Y4807366D01*
X10082278Y4807722D01*
X10094027Y4823034D01*
X10101413Y4840865D01*
X10103932Y4860000D01*
X10101413Y4879135D01*
X10094027Y4896966D01*
X10082278Y4912278D01*
X10066966Y4924027D01*
X10049135Y4931413D01*
X10030000Y4933932D01*
D02*
G37*
G36*
X7275000Y4603932D02*
X7255865Y4601413D01*
X7238034Y4594027D01*
X7222722Y4582278D01*
X7210973Y4566966D01*
X7203587Y4549135D01*
X7201068Y4530000D01*
X7203587Y4510865D01*
X7204739Y4508084D01*
X7213034Y4484027D01*
X7197722Y4472278D01*
X7185973Y4456966D01*
X7178587Y4439135D01*
X7176068Y4420000D01*
X7178587Y4400865D01*
X7185973Y4383034D01*
X7197722Y4367722D01*
X7213034Y4355973D01*
X7230865Y4348587D01*
X7250000Y4346068D01*
X7269135Y4348587D01*
X7286966Y4355973D01*
X7302278Y4367722D01*
X7314027Y4383034D01*
X7321413Y4400865D01*
X7323932Y4420000D01*
X7321413Y4439135D01*
X7320261Y4441916D01*
X7311966Y4465973D01*
X7327278Y4477722D01*
X7339027Y4493034D01*
X7346413Y4510865D01*
X7348932Y4530000D01*
X7346413Y4549135D01*
X7339027Y4566966D01*
X7327278Y4582278D01*
X7311966Y4594027D01*
X7294135Y4601413D01*
X7275000Y4603932D01*
D02*
G37*
G36*
X7050000Y4343932D02*
X7030865Y4341413D01*
X7013034Y4334027D01*
X6997722Y4322278D01*
X6985973Y4306966D01*
X6978587Y4289135D01*
X6976068Y4270000D01*
X6978587Y4250865D01*
X6985973Y4233034D01*
X6997722Y4217722D01*
X7013034Y4205973D01*
X7030865Y4198587D01*
X7050000Y4196068D01*
X7069135Y4198587D01*
X7086966Y4205973D01*
X7102278Y4217722D01*
X7114027Y4233034D01*
X7121413Y4250865D01*
X7123932Y4270000D01*
X7121413Y4289135D01*
X7114027Y4306966D01*
X7102278Y4322278D01*
X7086966Y4334027D01*
X7069135Y4341413D01*
X7050000Y4343932D01*
D02*
G37*
G36*
X6330000Y4892472D02*
X6294549Y4887804D01*
X6261514Y4874121D01*
X6233147Y4852354D01*
X6211379Y4823986D01*
X6197696Y4790951D01*
X6193029Y4755500D01*
X6197696Y4720049D01*
X6211379Y4687014D01*
X6233147Y4658647D01*
X6252429Y4643851D01*
X6254235Y4639133D01*
Y4617867D01*
X6252429Y4613150D01*
X6233147Y4598354D01*
X6211379Y4569986D01*
X6197696Y4536951D01*
X6193029Y4501500D01*
X6197696Y4466049D01*
X6211379Y4433014D01*
X6230036Y4408700D01*
X6223187Y4383300D01*
X6194200D01*
Y4111700D01*
X6465800D01*
Y4383300D01*
X6436813D01*
X6429964Y4408700D01*
X6448621Y4433014D01*
X6462304Y4466049D01*
X6466972Y4501500D01*
X6462304Y4536951D01*
X6448621Y4569986D01*
X6426854Y4598354D01*
X6407571Y4613150D01*
X6405765Y4617867D01*
Y4639133D01*
X6407571Y4643851D01*
X6426854Y4658647D01*
X6448621Y4687014D01*
X6462304Y4720049D01*
X6466972Y4755500D01*
X6462304Y4790951D01*
X6448621Y4823986D01*
X6426854Y4852354D01*
X6398486Y4874121D01*
X6365451Y4887804D01*
X6330000Y4892472D01*
D02*
G37*
G36*
X10760000Y4243932D02*
X10740865Y4241413D01*
X10723034Y4234027D01*
X10707722Y4222278D01*
X10695973Y4206966D01*
X10688587Y4189135D01*
X10686068Y4170000D01*
X10688587Y4150865D01*
X10695973Y4133034D01*
X10707722Y4117722D01*
X10723034Y4105973D01*
X10740865Y4098587D01*
X10760000Y4096068D01*
X10779135Y4098587D01*
X10796966Y4105973D01*
X10812278Y4117722D01*
X10824027Y4133034D01*
X10831413Y4150865D01*
X10833932Y4170000D01*
X10831413Y4189135D01*
X10824027Y4206966D01*
X10812278Y4222278D01*
X10796966Y4234027D01*
X10779135Y4241413D01*
X10760000Y4243932D01*
D02*
G37*
G36*
X6930000Y3943932D02*
X6910865Y3941413D01*
X6893034Y3934027D01*
X6877722Y3922278D01*
X6865973Y3906966D01*
X6858587Y3889135D01*
X6856068Y3870000D01*
X6858587Y3850865D01*
X6861223Y3844502D01*
X6856335Y3837482D01*
X6841226Y3826405D01*
X6829135Y3831413D01*
X6810000Y3833932D01*
X6790865Y3831413D01*
X6773034Y3824027D01*
X6757722Y3812278D01*
X6745973Y3796966D01*
X6738587Y3779135D01*
X6736068Y3760000D01*
X6738587Y3740865D01*
X6745973Y3723034D01*
X6757722Y3707722D01*
X6773034Y3695973D01*
X6790865Y3688587D01*
X6810000Y3686068D01*
X6829135Y3688587D01*
X6846966Y3695973D01*
X6862278Y3707722D01*
X6874027Y3723034D01*
X6881413Y3740865D01*
X6883932Y3760000D01*
X6881413Y3779135D01*
X6878777Y3785498D01*
X6883666Y3792518D01*
X6898775Y3803595D01*
X6910865Y3798587D01*
X6926920Y3796473D01*
X6926068Y3790000D01*
X6928587Y3770865D01*
X6935973Y3753034D01*
X6947722Y3737722D01*
X6963034Y3725973D01*
X6980865Y3718587D01*
X7000000Y3716068D01*
X7019135Y3718587D01*
X7036966Y3725973D01*
X7052278Y3737722D01*
X7064027Y3753034D01*
X7071413Y3770865D01*
X7073932Y3790000D01*
X7071413Y3809135D01*
X7064027Y3826966D01*
X7052278Y3842278D01*
X7036966Y3854027D01*
X7019135Y3861413D01*
X7003080Y3863527D01*
X7003932Y3870000D01*
X7001413Y3889135D01*
X6994027Y3906966D01*
X6982278Y3922278D01*
X6966966Y3934027D01*
X6949135Y3941413D01*
X6930000Y3943932D01*
D02*
G37*
G36*
X6240000D02*
X6220865Y3941413D01*
X6203034Y3934027D01*
X6187722Y3922278D01*
X6175973Y3906966D01*
X6168587Y3889135D01*
X6166068Y3870000D01*
X6168587Y3850865D01*
X6175973Y3833034D01*
X6187722Y3817722D01*
X6203034Y3805973D01*
X6220865Y3798587D01*
X6240000Y3796068D01*
X6259135Y3798587D01*
X6276966Y3805973D01*
X6292278Y3817722D01*
X6304027Y3833034D01*
X6311413Y3850865D01*
X6313932Y3870000D01*
X6311413Y3889135D01*
X6304027Y3906966D01*
X6292278Y3922278D01*
X6276966Y3934027D01*
X6259135Y3941413D01*
X6240000Y3943932D01*
D02*
G37*
G36*
X7181018Y3942914D02*
X7161883Y3940395D01*
X7144052Y3933009D01*
X7128740Y3921260D01*
X7116991Y3905948D01*
X7109605Y3888117D01*
X7107086Y3868982D01*
X7109605Y3849847D01*
X7116991Y3832016D01*
X7128740Y3816704D01*
X7144052Y3804955D01*
X7161883Y3797569D01*
X7181018Y3795050D01*
X7200153Y3797569D01*
X7217984Y3804955D01*
X7233296Y3816704D01*
X7245045Y3832016D01*
X7252431Y3849847D01*
X7254950Y3868982D01*
X7252431Y3888117D01*
X7245045Y3905948D01*
X7233296Y3921260D01*
X7217984Y3933009D01*
X7200153Y3940395D01*
X7181018Y3942914D01*
D02*
G37*
G36*
X7430000Y3883932D02*
X7410865Y3881413D01*
X7393034Y3874027D01*
X7377722Y3862278D01*
X7365973Y3846966D01*
X7358587Y3829135D01*
X7356068Y3810000D01*
X7358587Y3790865D01*
X7365973Y3773034D01*
X7373253Y3763546D01*
X7356966Y3744027D01*
X7339135Y3751413D01*
X7320000Y3753932D01*
X7300865Y3751413D01*
X7283034Y3744027D01*
X7267722Y3732278D01*
X7255973Y3716966D01*
X7248587Y3699135D01*
X7246068Y3680000D01*
X7248587Y3660865D01*
X7255973Y3643034D01*
X7267722Y3627722D01*
X7283034Y3615973D01*
X7300865Y3608587D01*
X7320000Y3606068D01*
X7339135Y3608587D01*
X7356966Y3615973D01*
X7372278Y3627722D01*
X7384027Y3643034D01*
X7391413Y3660865D01*
X7393932Y3680000D01*
X7391413Y3699135D01*
X7384027Y3716966D01*
X7376747Y3726454D01*
X7393034Y3745973D01*
X7410865Y3738587D01*
X7430000Y3736068D01*
X7449135Y3738587D01*
X7466966Y3745973D01*
X7482278Y3757722D01*
X7494027Y3773034D01*
X7501413Y3790865D01*
X7503932Y3810000D01*
X7501413Y3829135D01*
X7494027Y3846966D01*
X7482278Y3862278D01*
X7466966Y3874027D01*
X7449135Y3881413D01*
X7430000Y3883932D01*
D02*
G37*
G36*
X6860000Y3463932D02*
X6840865Y3461413D01*
X6823034Y3454027D01*
X6807722Y3442278D01*
X6795973Y3426966D01*
X6789028Y3410200D01*
X6787770Y3408866D01*
X6761806Y3400313D01*
X6756966Y3404027D01*
X6739135Y3411413D01*
X6720000Y3413932D01*
X6700865Y3411413D01*
X6683034Y3404027D01*
X6667722Y3392278D01*
X6655973Y3376966D01*
X6648587Y3359135D01*
X6646068Y3340000D01*
X6648587Y3320865D01*
X6655973Y3303034D01*
X6667722Y3287722D01*
X6683034Y3275973D01*
X6700865Y3268587D01*
X6720000Y3266068D01*
X6739135Y3268587D01*
X6756966Y3275973D01*
X6772278Y3287722D01*
X6784027Y3303034D01*
X6790972Y3319800D01*
X6792230Y3321134D01*
X6818194Y3329687D01*
X6823034Y3325973D01*
X6840865Y3318587D01*
X6860000Y3316068D01*
X6879135Y3318587D01*
X6896966Y3325973D01*
X6912278Y3337722D01*
X6924027Y3353034D01*
X6931413Y3370865D01*
X6933932Y3390000D01*
X6931413Y3409135D01*
X6924027Y3426966D01*
X6912278Y3442278D01*
X6896966Y3454027D01*
X6879135Y3461413D01*
X6860000Y3463932D01*
D02*
G37*
G36*
X11235800Y6264600D02*
X10964200D01*
Y6154200D01*
X10993187D01*
X11000036Y6128800D01*
X10981379Y6104486D01*
X10967696Y6071451D01*
X10963028Y6036000D01*
X10967696Y6000549D01*
X10981379Y5967514D01*
X11003146Y5939147D01*
X11022429Y5924351D01*
X11024235Y5919634D01*
Y5898367D01*
X11022429Y5893650D01*
X11003146Y5878854D01*
X10981379Y5850486D01*
X10967696Y5817451D01*
X10963028Y5782000D01*
X10967696Y5746549D01*
X10981379Y5713514D01*
X11003146Y5685147D01*
X11022429Y5670351D01*
X11024235Y5665634D01*
Y5644367D01*
X11022429Y5639650D01*
X11003146Y5624854D01*
X10981379Y5596486D01*
X10967696Y5563451D01*
X10963028Y5528000D01*
X10967696Y5492549D01*
X10981379Y5459514D01*
X11003146Y5431147D01*
X11022429Y5416351D01*
X11024235Y5411634D01*
Y5390367D01*
X11022429Y5385650D01*
X11003146Y5370854D01*
X10981379Y5342486D01*
X10967696Y5309451D01*
X10963028Y5274000D01*
X10967696Y5238549D01*
X10981379Y5205514D01*
X11003146Y5177147D01*
X11022429Y5162351D01*
X11024235Y5157634D01*
Y5136367D01*
X11022429Y5131650D01*
X11003146Y5116854D01*
X10981379Y5088486D01*
X10967696Y5055451D01*
X10963028Y5020000D01*
X10967696Y4984549D01*
X10981379Y4951514D01*
X11003146Y4923147D01*
X11022429Y4908351D01*
X11024235Y4903634D01*
Y4882367D01*
X11022429Y4877650D01*
X11003146Y4862854D01*
X10981379Y4834486D01*
X10967696Y4801451D01*
X10963028Y4766000D01*
X10967696Y4730549D01*
X10981379Y4697514D01*
X11003146Y4669147D01*
X11022429Y4654351D01*
X11024235Y4649634D01*
Y4628367D01*
X11022429Y4623650D01*
X11003146Y4608854D01*
X10981379Y4580486D01*
X10967696Y4547451D01*
X10963028Y4512000D01*
X10967696Y4476549D01*
X10981379Y4443514D01*
X11003146Y4415147D01*
X11022429Y4400351D01*
X11024235Y4395634D01*
Y4374367D01*
X11022429Y4369650D01*
X11003146Y4354854D01*
X10981379Y4326486D01*
X10967696Y4293451D01*
X10963028Y4258000D01*
X10967696Y4222549D01*
X10981379Y4189514D01*
X11003146Y4161147D01*
X11022429Y4146351D01*
X11024235Y4141634D01*
Y4120367D01*
X11022429Y4115650D01*
X11003146Y4100854D01*
X10981379Y4072486D01*
X10967696Y4039451D01*
X10963028Y4004000D01*
X10967696Y3968549D01*
X10981379Y3935514D01*
X11003146Y3907147D01*
X11022429Y3892351D01*
X11024235Y3887634D01*
Y3866367D01*
X11022429Y3861650D01*
X11003146Y3846854D01*
X10981379Y3818486D01*
X10967696Y3785451D01*
X10963028Y3750000D01*
X10967696Y3714549D01*
X10981379Y3681514D01*
X11003146Y3653147D01*
X11022429Y3638351D01*
X11024235Y3633634D01*
Y3612367D01*
X11022429Y3607650D01*
X11003146Y3592854D01*
X10981379Y3564486D01*
X10967696Y3531451D01*
X10963028Y3496000D01*
X10967696Y3460549D01*
X10981379Y3427514D01*
X11003146Y3399147D01*
X11031514Y3377379D01*
X11064549Y3363696D01*
X11100000Y3359029D01*
X11135451Y3363696D01*
X11168486Y3377379D01*
X11196853Y3399147D01*
X11218621Y3427514D01*
X11232304Y3460549D01*
X11236971Y3496000D01*
X11232304Y3531451D01*
X11218621Y3564486D01*
X11196853Y3592854D01*
X11177571Y3607650D01*
X11175765Y3612367D01*
Y3633634D01*
X11177571Y3638351D01*
X11196853Y3653147D01*
X11218621Y3681514D01*
X11232304Y3714549D01*
X11236971Y3750000D01*
X11232304Y3785451D01*
X11218621Y3818486D01*
X11196853Y3846854D01*
X11177571Y3861650D01*
X11175765Y3866367D01*
Y3887634D01*
X11177571Y3892351D01*
X11196853Y3907147D01*
X11218621Y3935514D01*
X11232304Y3968549D01*
X11236971Y4004000D01*
X11232304Y4039451D01*
X11218621Y4072486D01*
X11196853Y4100854D01*
X11177571Y4115650D01*
X11175765Y4120367D01*
Y4141634D01*
X11177571Y4146351D01*
X11196853Y4161147D01*
X11218621Y4189514D01*
X11232304Y4222549D01*
X11236971Y4258000D01*
X11232304Y4293451D01*
X11218621Y4326486D01*
X11196853Y4354854D01*
X11177571Y4369650D01*
X11175765Y4374367D01*
Y4395634D01*
X11177571Y4400351D01*
X11196853Y4415147D01*
X11218621Y4443514D01*
X11232304Y4476549D01*
X11236971Y4512000D01*
X11232304Y4547451D01*
X11218621Y4580486D01*
X11196853Y4608854D01*
X11177571Y4623650D01*
X11175765Y4628367D01*
Y4649634D01*
X11177571Y4654351D01*
X11196853Y4669147D01*
X11218621Y4697514D01*
X11232304Y4730549D01*
X11236971Y4766000D01*
X11232304Y4801451D01*
X11218621Y4834486D01*
X11196853Y4862854D01*
X11177571Y4877650D01*
X11175765Y4882367D01*
Y4903634D01*
X11177571Y4908351D01*
X11196853Y4923147D01*
X11218621Y4951514D01*
X11232304Y4984549D01*
X11236971Y5020000D01*
X11232304Y5055451D01*
X11218621Y5088486D01*
X11196853Y5116854D01*
X11177571Y5131650D01*
X11175765Y5136367D01*
Y5157634D01*
X11177571Y5162351D01*
X11196853Y5177147D01*
X11218621Y5205514D01*
X11232304Y5238549D01*
X11236971Y5274000D01*
X11232304Y5309451D01*
X11218621Y5342486D01*
X11196853Y5370854D01*
X11177571Y5385650D01*
X11175765Y5390367D01*
Y5411634D01*
X11177571Y5416351D01*
X11196853Y5431147D01*
X11218621Y5459514D01*
X11232304Y5492549D01*
X11236971Y5528000D01*
X11232304Y5563451D01*
X11218621Y5596486D01*
X11196853Y5624854D01*
X11177571Y5639650D01*
X11175765Y5644367D01*
Y5665634D01*
X11177571Y5670351D01*
X11196853Y5685147D01*
X11218621Y5713514D01*
X11232304Y5746549D01*
X11236971Y5782000D01*
X11232304Y5817451D01*
X11218621Y5850486D01*
X11196853Y5878854D01*
X11177571Y5893650D01*
X11175765Y5898367D01*
Y5919634D01*
X11177571Y5924351D01*
X11196853Y5939147D01*
X11218621Y5967514D01*
X11232304Y6000549D01*
X11236971Y6036000D01*
X11232304Y6071451D01*
X11218621Y6104486D01*
X11199964Y6128800D01*
X11206813Y6154200D01*
X11235800D01*
Y6264600D01*
D02*
G37*
G36*
X6220000Y3483932D02*
X6200865Y3481413D01*
X6183034Y3474027D01*
X6167722Y3462278D01*
X6155973Y3446966D01*
X6148587Y3429135D01*
X6146068Y3410000D01*
X6148587Y3390865D01*
X6155973Y3373034D01*
X6167722Y3357722D01*
X6183034Y3345973D01*
X6200865Y3338587D01*
X6220000Y3336068D01*
X6239135Y3338587D01*
X6256966Y3345973D01*
X6272278Y3357722D01*
X6284027Y3373034D01*
X6291413Y3390865D01*
X6293932Y3410000D01*
X6291413Y3429135D01*
X6284027Y3446966D01*
X6272278Y3462278D01*
X6256966Y3474027D01*
X6239135Y3481413D01*
X6220000Y3483932D01*
D02*
G37*
G36*
X11125000Y3218932D02*
X11105865Y3216413D01*
X11088034Y3209027D01*
X11085380Y3206991D01*
X10964620D01*
X10961966Y3209027D01*
X10944135Y3216413D01*
X10925000Y3218932D01*
X10905865Y3216413D01*
X10888034Y3209027D01*
X10872722Y3197278D01*
X10860973Y3181966D01*
X10853587Y3164135D01*
X10851068Y3145000D01*
X10853587Y3125865D01*
X10860973Y3108034D01*
X10872722Y3092722D01*
X10888034Y3080973D01*
X10905865Y3073587D01*
X10925000Y3071068D01*
X10944135Y3073587D01*
X10961966Y3080973D01*
X10964620Y3083009D01*
X11085380D01*
X11088034Y3080973D01*
X11105865Y3073587D01*
X11125000Y3071068D01*
X11144135Y3073587D01*
X11161966Y3080973D01*
X11177278Y3092722D01*
X11189027Y3108034D01*
X11196413Y3125865D01*
X11198932Y3145000D01*
X11196413Y3164135D01*
X11189027Y3181966D01*
X11177278Y3197278D01*
X11161966Y3209027D01*
X11144135Y3216413D01*
X11125000Y3218932D01*
D02*
G37*
G36*
X8068500Y3226972D02*
X8033049Y3222304D01*
X8000014Y3208621D01*
X7971646Y3186854D01*
X7956850Y3167571D01*
X7952133Y3165765D01*
X7930867D01*
X7926150Y3167571D01*
X7911353Y3186854D01*
X7882986Y3208621D01*
X7849951Y3222304D01*
X7814500Y3226972D01*
X7779049Y3222304D01*
X7746014Y3208621D01*
X7717646Y3186854D01*
X7695879Y3158486D01*
X7682196Y3125451D01*
X7677528Y3090000D01*
X7682196Y3054549D01*
X7695879Y3021514D01*
X7717646Y2993147D01*
X7746014Y2971379D01*
X7779049Y2957696D01*
X7814500Y2953029D01*
X7849951Y2957696D01*
X7882986Y2971379D01*
X7911353Y2993147D01*
X7926150Y3012429D01*
X7930867Y3014235D01*
X7952133D01*
X7956850Y3012429D01*
X7971646Y2993147D01*
X8000014Y2971379D01*
X8033049Y2957696D01*
X8068500Y2953029D01*
X8103951Y2957696D01*
X8136986Y2971379D01*
X8161300Y2990036D01*
X8186700Y2983187D01*
Y2954200D01*
X8458300D01*
Y3225800D01*
X8186700D01*
Y3196814D01*
X8161300Y3189964D01*
X8136986Y3208621D01*
X8103951Y3222304D01*
X8068500Y3226972D01*
D02*
G37*
G36*
X8830000Y3223932D02*
X8810865Y3221413D01*
X8793034Y3214027D01*
X8777722Y3202278D01*
X8765973Y3186966D01*
X8758587Y3169135D01*
X8756068Y3150000D01*
X8758587Y3130865D01*
X8765973Y3113034D01*
X8777722Y3097722D01*
X8793034Y3085973D01*
X8810865Y3078587D01*
X8830000Y3076068D01*
X8849135Y3078587D01*
X8866966Y3085973D01*
X8882278Y3097722D01*
X8894027Y3113034D01*
X8901413Y3130865D01*
X8903932Y3150000D01*
X8901413Y3169135D01*
X8894027Y3186966D01*
X8882278Y3202278D01*
X8866966Y3214027D01*
X8849135Y3221413D01*
X8830000Y3223932D01*
D02*
G37*
G36*
X9263300Y3103300D02*
X9076700D01*
Y2916700D01*
X9263300D01*
Y3103300D01*
D02*
G37*
G36*
X10836000Y2856972D02*
X10800549Y2852304D01*
X10767514Y2838621D01*
X10739146Y2816854D01*
X10724350Y2797571D01*
X10719633Y2795765D01*
X10698366D01*
X10693649Y2797571D01*
X10678853Y2816854D01*
X10650486Y2838621D01*
X10617451Y2852304D01*
X10582000Y2856972D01*
X10546549Y2852304D01*
X10513514Y2838621D01*
X10485146Y2816854D01*
X10470350Y2797571D01*
X10465633Y2795765D01*
X10444366D01*
X10439649Y2797571D01*
X10424853Y2816854D01*
X10396486Y2838621D01*
X10363451Y2852304D01*
X10328000Y2856972D01*
X10292549Y2852304D01*
X10259514Y2838621D01*
X10231146Y2816854D01*
X10216350Y2797571D01*
X10211633Y2795765D01*
X10190366D01*
X10185649Y2797571D01*
X10170853Y2816854D01*
X10142486Y2838621D01*
X10109451Y2852304D01*
X10074000Y2856972D01*
X10038549Y2852304D01*
X10005514Y2838621D01*
X9977146Y2816854D01*
X9962350Y2797571D01*
X9957633Y2795765D01*
X9936366D01*
X9931649Y2797571D01*
X9916853Y2816854D01*
X9888486Y2838621D01*
X9855451Y2852304D01*
X9820000Y2856972D01*
X9784549Y2852304D01*
X9751514Y2838621D01*
X9723146Y2816854D01*
X9708350Y2797571D01*
X9703633Y2795765D01*
X9682366D01*
X9677649Y2797571D01*
X9662853Y2816854D01*
X9634486Y2838621D01*
X9601451Y2852304D01*
X9566000Y2856972D01*
X9530549Y2852304D01*
X9497514Y2838621D01*
X9469146Y2816854D01*
X9454350Y2797571D01*
X9449633Y2795765D01*
X9428366D01*
X9423649Y2797571D01*
X9408853Y2816854D01*
X9380486Y2838621D01*
X9347451Y2852304D01*
X9312000Y2856972D01*
X9276549Y2852304D01*
X9243514Y2838621D01*
X9215146Y2816854D01*
X9200350Y2797571D01*
X9195633Y2795765D01*
X9174366D01*
X9169649Y2797571D01*
X9154853Y2816854D01*
X9126486Y2838621D01*
X9093451Y2852304D01*
X9058000Y2856972D01*
X9022549Y2852304D01*
X8989514Y2838621D01*
X8961146Y2816854D01*
X8946350Y2797571D01*
X8941633Y2795765D01*
X8920366D01*
X8915649Y2797571D01*
X8900853Y2816854D01*
X8872486Y2838621D01*
X8839451Y2852304D01*
X8804000Y2856972D01*
X8768549Y2852304D01*
X8735514Y2838621D01*
X8707146Y2816854D01*
X8692350Y2797571D01*
X8687633Y2795765D01*
X8666366D01*
X8661649Y2797571D01*
X8646853Y2816854D01*
X8618486Y2838621D01*
X8585451Y2852304D01*
X8550000Y2856972D01*
X8514549Y2852304D01*
X8481514Y2838621D01*
X8453146Y2816854D01*
X8431379Y2788486D01*
X8417696Y2755451D01*
X8413028Y2720000D01*
X8417696Y2684549D01*
X8431379Y2651514D01*
X8453146Y2623147D01*
X8481514Y2601379D01*
X8514549Y2587696D01*
X8550000Y2583029D01*
X8585451Y2587696D01*
X8618486Y2601379D01*
X8646853Y2623147D01*
X8661649Y2642429D01*
X8666366Y2644235D01*
X8687633D01*
X8692350Y2642429D01*
X8707146Y2623147D01*
X8735514Y2601379D01*
X8768549Y2587696D01*
X8804000Y2583029D01*
X8839451Y2587696D01*
X8872486Y2601379D01*
X8900853Y2623147D01*
X8915649Y2642429D01*
X8920366Y2644235D01*
X8941633D01*
X8946350Y2642429D01*
X8961146Y2623147D01*
X8989514Y2601379D01*
X9022549Y2587696D01*
X9058000Y2583029D01*
X9093451Y2587696D01*
X9126486Y2601379D01*
X9154853Y2623147D01*
X9169649Y2642429D01*
X9174366Y2644235D01*
X9195633D01*
X9200350Y2642429D01*
X9215146Y2623147D01*
X9243514Y2601379D01*
X9276549Y2587696D01*
X9312000Y2583029D01*
X9347451Y2587696D01*
X9380486Y2601379D01*
X9408853Y2623147D01*
X9423649Y2642429D01*
X9428366Y2644235D01*
X9449633D01*
X9454350Y2642429D01*
X9469146Y2623147D01*
X9497514Y2601379D01*
X9530549Y2587696D01*
X9566000Y2583029D01*
X9601451Y2587696D01*
X9634486Y2601379D01*
X9662853Y2623147D01*
X9677649Y2642429D01*
X9682366Y2644235D01*
X9703633D01*
X9708350Y2642429D01*
X9723146Y2623147D01*
X9751514Y2601379D01*
X9784549Y2587696D01*
X9820000Y2583029D01*
X9855451Y2587696D01*
X9888486Y2601379D01*
X9916853Y2623147D01*
X9931649Y2642429D01*
X9936366Y2644235D01*
X9957633D01*
X9962350Y2642429D01*
X9977146Y2623147D01*
X10005514Y2601379D01*
X10038549Y2587696D01*
X10074000Y2583029D01*
X10109451Y2587696D01*
X10142486Y2601379D01*
X10170853Y2623147D01*
X10185649Y2642429D01*
X10190366Y2644235D01*
X10211633D01*
X10216350Y2642429D01*
X10231146Y2623147D01*
X10259514Y2601379D01*
X10292549Y2587696D01*
X10328000Y2583029D01*
X10363451Y2587696D01*
X10396486Y2601379D01*
X10424853Y2623147D01*
X10439649Y2642429D01*
X10444366Y2644235D01*
X10465633D01*
X10470350Y2642429D01*
X10485146Y2623147D01*
X10513514Y2601379D01*
X10546549Y2587696D01*
X10582000Y2583029D01*
X10617451Y2587696D01*
X10650486Y2601379D01*
X10678853Y2623147D01*
X10693649Y2642429D01*
X10698366Y2644235D01*
X10719633D01*
X10724350Y2642429D01*
X10739146Y2623147D01*
X10767514Y2601379D01*
X10800549Y2587696D01*
X10836000Y2583029D01*
X10871451Y2587696D01*
X10904486Y2601379D01*
X10928800Y2620036D01*
X10954200Y2613187D01*
Y2584200D01*
X11064600D01*
Y2720000D01*
Y2855800D01*
X10954200D01*
Y2826813D01*
X10928800Y2819964D01*
X10904486Y2838621D01*
X10871451Y2852304D01*
X10836000Y2856972D01*
D02*
G37*
G36*
X11225800Y2855800D02*
X11115400D01*
Y2745400D01*
X11225800D01*
Y2855800D01*
D02*
G37*
G36*
X5580000Y2856972D02*
X5544549Y2852304D01*
X5511514Y2838621D01*
X5483147Y2816854D01*
X5461379Y2788486D01*
X5447696Y2755451D01*
X5443028Y2720000D01*
X5447696Y2684549D01*
X5461379Y2651514D01*
X5483147Y2623147D01*
X5511514Y2601379D01*
X5544549Y2587696D01*
X5580000Y2583029D01*
X5615451Y2587696D01*
X5648486Y2601379D01*
X5676854Y2623147D01*
X5691650Y2642429D01*
X5696367Y2644235D01*
X5717633D01*
X5722351Y2642429D01*
X5737147Y2623147D01*
X5765514Y2601379D01*
X5798549Y2587696D01*
X5808600Y2586373D01*
Y2720000D01*
Y2853628D01*
X5798549Y2852304D01*
X5765514Y2838621D01*
X5737147Y2816854D01*
X5722351Y2797571D01*
X5717633Y2795765D01*
X5696367D01*
X5691650Y2797571D01*
X5676854Y2816854D01*
X5648486Y2838621D01*
X5615451Y2852304D01*
X5580000Y2856972D01*
D02*
G37*
G36*
X11225800Y2694600D02*
X11115400D01*
Y2584200D01*
X11225800D01*
Y2694600D01*
D02*
G37*
%LPD*%
G36*
X9015973Y4903034D02*
X9027722Y4887722D01*
X9031412Y4884890D01*
X9031303Y4855039D01*
X9031116Y4854704D01*
X9023008Y4849609D01*
X9019135Y4851213D01*
X9000000Y4853732D01*
X8980865Y4851213D01*
X8963034Y4843827D01*
X8947722Y4832078D01*
X8939831Y4821794D01*
X8927765Y4818476D01*
X8902364Y4832110D01*
X8901413Y4839335D01*
X8899853Y4843101D01*
X8917708Y4866369D01*
X8920000Y4866068D01*
X8939135Y4868587D01*
X8956966Y4875973D01*
X8972278Y4887722D01*
X8984027Y4903034D01*
X8986254Y4908409D01*
X9013746D01*
X9015973Y4903034D01*
D02*
G37*
G36*
X9138814Y4869436D02*
X9140865Y4868587D01*
X9142923Y4868316D01*
X9160947Y4863401D01*
X9168691Y4841593D01*
X9168787Y4840865D01*
X9176173Y4823034D01*
X9187922Y4807722D01*
X9197918Y4800052D01*
X9199839Y4795871D01*
X9200268Y4789924D01*
X9184700Y4774503D01*
X9179135Y4771413D01*
X9171667Y4772396D01*
X9162032Y4782031D01*
X9162032Y4782032D01*
X9152857Y4788162D01*
X9151413Y4799135D01*
X9144027Y4816966D01*
X9132278Y4832278D01*
X9128731Y4835000D01*
X9128920Y4865020D01*
X9129007Y4865173D01*
X9136705Y4870011D01*
X9138814Y4869436D01*
D02*
G37*
D36*
X10925000Y3145000D02*
X11125000D01*
X9040000Y5560000D02*
X9043426Y5563426D01*
X9040000Y5210000D02*
Y5560000D01*
X9584402Y3144216D02*
X10295784D01*
X9282650Y4842417D02*
Y4877584D01*
X9277550Y4882684D02*
Y4995549D01*
X9321645Y5039644D01*
X9277550Y4742654D02*
X9322450Y4697754D01*
X9277550Y4837316D02*
X9282650Y4842417D01*
X9277550Y4742654D02*
Y4837316D01*
Y4882684D02*
X9282650Y4877584D01*
X9321645Y5039644D02*
Y5257817D01*
X9090000Y5180000D02*
X9373426Y5463426D01*
X9596652Y5484565D01*
X9000000Y4920034D02*
Y5000000D01*
Y4920034D02*
X9060034Y4860000D01*
X9159800D01*
D37*
X7440000Y5540000D02*
X8288100Y6388100D01*
X10041900D01*
X10570000Y5860000D01*
X9120000Y4603149D02*
X9120200Y4603349D01*
X9080000Y4700000D02*
X9120200Y4659800D01*
X9120000Y4420000D02*
Y4523148D01*
X9120200Y4603349D02*
Y4659800D01*
X9440000Y4060000D02*
X9580000Y3920000D01*
X9440000Y4060000D02*
Y4100000D01*
X9120000Y4556852D02*
Y4603149D01*
Y4556852D02*
X9120200Y4556652D01*
Y4523349D02*
Y4556652D01*
X9120000Y4420000D02*
X9440000Y4100000D01*
X9120000Y4523148D02*
X9120200Y4523349D01*
X7960000Y3460000D02*
X8580000Y4080000D01*
X9073461Y4133461D02*
Y4220000D01*
X8580000Y4080000D02*
X9020000D01*
X7590000Y3460000D02*
X7960000D01*
X6850000Y2720000D02*
X7590000Y3460000D01*
X9020000Y4080000D02*
X9073461Y4133461D01*
X9160000Y4940000D02*
X9200000Y4980000D01*
Y5180000D01*
Y5220000D01*
X9370000Y5390000D01*
X9330000Y3750000D02*
X9370000Y3710000D01*
X10240000D01*
X10300000Y3650000D01*
X7440000Y5530000D02*
Y5540000D01*
X10570000Y4900000D02*
Y5860000D01*
D38*
X7920000Y5670000D02*
X8850150Y4739850D01*
X9120000Y4740000D02*
X9160000Y4700000D01*
X9016698Y4740000D02*
X9120000D01*
X8850150Y4739850D02*
X9016548D01*
X9016698Y4740000D01*
D40*
X8530000Y6770000D02*
D03*
X8784000D02*
D03*
X9038000D02*
D03*
X9292000D02*
D03*
X9546000D02*
D03*
X9800000D02*
D03*
X10054000D02*
D03*
X10308000D02*
D03*
X10562000D02*
D03*
X10816000D02*
D03*
X5580000D02*
D03*
X5834000D02*
D03*
X6088000D02*
D03*
X6342000D02*
D03*
X6596000D02*
D03*
X6850000D02*
D03*
X7104000D02*
D03*
X7358000D02*
D03*
X7612000D02*
D03*
X7866000D02*
D03*
X5580000Y2720000D02*
D03*
X5834000D02*
D03*
X6088000D02*
D03*
X6342000D02*
D03*
X6596000D02*
D03*
X6850000D02*
D03*
X7104000D02*
D03*
X7358000D02*
D03*
X7612000D02*
D03*
X7866000D02*
D03*
X7814500Y3090000D02*
D03*
X8068500D02*
D03*
X8550000Y2720000D02*
D03*
X8804000D02*
D03*
X9058000D02*
D03*
X9312000D02*
D03*
X9566000D02*
D03*
X9820000D02*
D03*
X10074000D02*
D03*
X10328000D02*
D03*
X10582000D02*
D03*
X10836000D02*
D03*
D41*
X11070000Y6770000D02*
D03*
X8120000D02*
D03*
Y2720000D02*
D03*
X8322500Y3090000D02*
D03*
X11090000Y2720000D02*
D03*
D42*
X10260117Y3909500D02*
D03*
Y3782500D02*
D03*
Y3655500D02*
D03*
Y3528500D02*
D03*
Y3401500D02*
D03*
Y3274500D02*
D03*
D43*
Y3147500D02*
D03*
D44*
X9170000Y3010000D02*
D03*
D45*
X5468481Y6102840D02*
D03*
X5935481D02*
D03*
X5467481Y4986840D02*
D03*
X5935481D02*
D03*
X5468018Y4198000D02*
D03*
X5467018Y3082000D02*
D03*
X5935018Y4198000D02*
D03*
Y3082000D02*
D03*
D46*
X5943981Y5919840D02*
D03*
Y5169840D02*
D03*
X5943518Y4015000D02*
D03*
Y3265000D02*
D03*
D47*
X11100000Y3496000D02*
D03*
Y3750000D02*
D03*
Y4004000D02*
D03*
Y4258000D02*
D03*
Y4512000D02*
D03*
Y4766000D02*
D03*
Y5020000D02*
D03*
Y5274000D02*
D03*
Y5528000D02*
D03*
Y5782000D02*
D03*
Y6036000D02*
D03*
X6330000Y4755500D02*
D03*
Y4501500D02*
D03*
D48*
X11100000Y6290000D02*
D03*
X6330000Y4247500D02*
D03*
D49*
X6220000Y3410000D02*
D03*
X6720000Y3340000D02*
D03*
X6810000Y3760000D02*
D03*
X7320000Y3680000D02*
D03*
X6930000Y3870000D02*
D03*
X7181018Y3868982D02*
D03*
X6240000Y3870000D02*
D03*
X9570200Y3800000D02*
D03*
X10925000Y3145000D02*
D03*
X9650000Y3000000D02*
D03*
X11125000Y3145000D02*
D03*
X9480000Y3270000D02*
D03*
X9520200Y3860000D02*
D03*
X8830000Y4820200D02*
D03*
X7880000Y4940000D02*
D03*
X7660000Y5060000D02*
D03*
X8840000Y4937550D02*
D03*
X8060000Y4940000D02*
D03*
X8720000Y4980000D02*
D03*
X8920000Y4940000D02*
D03*
X7660000Y5140000D02*
D03*
X9000000Y4140000D02*
D03*
Y4219800D02*
D03*
Y4300200D02*
D03*
X9080000Y4700000D02*
D03*
X9580000Y3920000D02*
D03*
X9000000Y4779800D02*
D03*
X7250000Y4420000D02*
D03*
X9040000Y5210000D02*
D03*
X9043426Y5563426D02*
D03*
X9060000Y3970000D02*
D03*
X9030000Y4030000D02*
D03*
X9075429Y4219993D02*
D03*
X9079800Y4300000D02*
D03*
X9080000Y4780000D02*
D03*
X7275000Y4530000D02*
D03*
X8150000Y5180000D02*
D03*
X9080000Y4940000D02*
D03*
X7660000Y5220000D02*
D03*
X9080000Y5020000D02*
D03*
X9070000Y3890000D02*
D03*
X9240000Y4460000D02*
D03*
X7920000Y5670000D02*
D03*
X9160000Y4700000D02*
D03*
X8800000Y5290000D02*
D03*
X9240000Y4220000D02*
D03*
Y4380000D02*
D03*
X9240200Y4860000D02*
D03*
X8730000Y5430000D02*
D03*
X9242450Y5020483D02*
D03*
X8810017Y5410017D02*
D03*
X8905033Y5375033D02*
D03*
X9330000Y4000000D02*
D03*
X9319600Y4300000D02*
D03*
X9320000Y4380000D02*
D03*
X9325100Y4860498D02*
D03*
X9400000Y4940000D02*
D03*
Y5020000D02*
D03*
X9849800Y3570000D02*
D03*
X9400000Y4300000D02*
D03*
X9480000Y4380000D02*
D03*
X9870000Y4014000D02*
D03*
X9370000Y5390000D02*
D03*
X9401936Y4380758D02*
D03*
X9584402Y3144216D02*
D03*
X9160000Y4940000D02*
D03*
X9560000D02*
D03*
X9777550Y3620000D02*
D03*
X9400050Y4219406D02*
D03*
X9330000Y3750000D02*
D03*
X9560000Y4220000D02*
D03*
X9770000Y3760000D02*
D03*
X9480000Y4300000D02*
D03*
X9627550Y3320000D02*
D03*
X9480000Y4940000D02*
D03*
X9330000Y3590000D02*
D03*
X9439983Y5199983D02*
D03*
X9560000Y5100000D02*
D03*
X9640000Y4540000D02*
D03*
Y4700000D02*
D03*
Y4940000D02*
D03*
X9590000Y5220000D02*
D03*
X9740000Y4020000D02*
D03*
X9720000Y4140000D02*
D03*
Y4300000D02*
D03*
X9480000Y3800000D02*
D03*
X9640000Y4380000D02*
D03*
X9720000Y4460000D02*
D03*
Y4540000D02*
D03*
X10760000Y4170000D02*
D03*
X10035759Y4719610D02*
D03*
X9720000Y4860000D02*
D03*
Y5020000D02*
D03*
Y5100000D02*
D03*
X9680200Y5222416D02*
D03*
X9800000Y4300000D02*
D03*
X10030000Y4860000D02*
D03*
X9800000Y5020000D02*
D03*
X9880000Y4300000D02*
D03*
X9990000Y4270000D02*
D03*
X10100000Y4400000D02*
D03*
X7440000Y5530000D02*
D03*
X10570000Y4900000D02*
D03*
X6860000Y3390000D02*
D03*
X8820000Y4649800D02*
D03*
X8920000Y4620000D02*
D03*
X7000000Y3790000D02*
D03*
X9000000Y4460000D02*
D03*
X7430000Y3810000D02*
D03*
X6630000Y5330000D02*
D03*
X9080000Y4620000D02*
D03*
X9000000D02*
D03*
X6419840Y5619840D02*
D03*
X6950000Y5620000D02*
D03*
X7050000Y4270000D02*
D03*
X6250000Y5270000D02*
D03*
X6290000Y5880000D02*
D03*
X7220250Y5299750D02*
D03*
X9322450Y4697754D02*
D03*
X9321645Y5257817D02*
D03*
X9596652Y5484565D02*
D03*
X9090000Y5180000D02*
D03*
X9060000Y3770000D02*
D03*
X9160400Y4540000D02*
D03*
X9380000Y3310000D02*
D03*
X8980000Y6080000D02*
D03*
X8090000Y5280000D02*
D03*
X9159800Y4860000D02*
D03*
X8960000Y3970000D02*
D03*
X9481720Y4788710D02*
D03*
X8780000Y6090000D02*
D03*
X8180000Y5660000D02*
D03*
X8790000Y3970000D02*
D03*
X9476267Y4457550D02*
D03*
X7780000Y4020000D02*
D03*
X9460000Y6220000D02*
D03*
X8830000Y3150000D02*
D03*
X9330000Y3880000D02*
D03*
X9159800Y5100000D02*
D03*
X9500000Y2970000D02*
D03*
X9640000Y4140000D02*
D03*
X9080000Y4540000D02*
D03*
X8290000Y5500000D02*
D03*
X8400000Y6250000D02*
D03*
X7720000Y6260000D02*
D03*
%TF.MD5,48bc3d02557f2b466b8d336478d1edc1*%
M02*
