%TF.GenerationSoftware,Altium Limited,Altium Designer,25.8.1 (18)*%
G04 Layer_Color=8388736*
%FSLAX45Y45*%
%MOMM*%
%TF.SameCoordinates,17085BFC-A43B-44DB-BDC7-07AAAC4551C8*%
%TF.FilePolarity,Negative*%
%TF.FileFunction,Soldermask,Top*%
%TF.Part,Single*%
G01*
G75*
%TA.AperFunction,SMDPad,CuDef*%
G04:AMPARAMS|DCode=10|XSize=0.875mm|YSize=0.95mm|CornerRadius=0.10937mm|HoleSize=0mm|Usage=FLASHONLY|Rotation=180.000|XOffset=0mm|YOffset=0mm|HoleType=Round|Shape=RoundedRectangle|*
%AMROUNDEDRECTD10*
21,1,0.87500,0.73125,0,0,180.0*
21,1,0.65625,0.95000,0,0,180.0*
1,1,0.21875,-0.32812,0.36563*
1,1,0.21875,0.32812,0.36563*
1,1,0.21875,0.32812,-0.36563*
1,1,0.21875,-0.32812,-0.36563*
%
%ADD10ROUNDEDRECTD10*%
%ADD11R,1.19380X0.50800*%
G04:AMPARAMS|DCode=12|XSize=0.59mm|YSize=0.64mm|CornerRadius=0.07375mm|HoleSize=0mm|Usage=FLASHONLY|Rotation=90.000|XOffset=0mm|YOffset=0mm|HoleType=Round|Shape=RoundedRectangle|*
%AMROUNDEDRECTD12*
21,1,0.59000,0.49250,0,0,90.0*
21,1,0.44250,0.64000,0,0,90.0*
1,1,0.14750,0.24625,0.22125*
1,1,0.14750,0.24625,-0.22125*
1,1,0.14750,-0.24625,-0.22125*
1,1,0.14750,-0.24625,0.22125*
%
%ADD12ROUNDEDRECTD12*%
%ADD13C,1.00000*%
G04:AMPARAMS|DCode=14|XSize=0.975mm|YSize=1.4mm|CornerRadius=0.12187mm|HoleSize=0mm|Usage=FLASHONLY|Rotation=270.000|XOffset=0mm|YOffset=0mm|HoleType=Round|Shape=RoundedRectangle|*
%AMROUNDEDRECTD14*
21,1,0.97500,1.15625,0,0,270.0*
21,1,0.73125,1.40000,0,0,270.0*
1,1,0.24375,-0.57813,-0.36563*
1,1,0.24375,-0.57813,0.36563*
1,1,0.24375,0.57813,0.36563*
1,1,0.24375,0.57813,-0.36563*
%
%ADD14ROUNDEDRECTD14*%
%ADD15R,1.40000X1.00000*%
%ADD16R,1.40000X1.20000*%
G04:AMPARAMS|DCode=17|XSize=0.875mm|YSize=0.95mm|CornerRadius=0.10937mm|HoleSize=0mm|Usage=FLASHONLY|Rotation=90.000|XOffset=0mm|YOffset=0mm|HoleType=Round|Shape=RoundedRectangle|*
%AMROUNDEDRECTD17*
21,1,0.87500,0.73125,0,0,90.0*
21,1,0.65625,0.95000,0,0,90.0*
1,1,0.21875,0.36563,0.32812*
1,1,0.21875,0.36563,-0.32812*
1,1,0.21875,-0.36563,-0.32812*
1,1,0.21875,-0.36563,0.32812*
%
%ADD17ROUNDEDRECTD17*%
%ADD18R,0.25000X0.65000*%
%ADD19R,0.70000X0.45000*%
%ADD20R,0.80000X0.30000*%
G04:AMPARAMS|DCode=21|XSize=0.975mm|YSize=1.4mm|CornerRadius=0.12187mm|HoleSize=0mm|Usage=FLASHONLY|Rotation=180.000|XOffset=0mm|YOffset=0mm|HoleType=Round|Shape=RoundedRectangle|*
%AMROUNDEDRECTD21*
21,1,0.97500,1.15625,0,0,180.0*
21,1,0.73125,1.40000,0,0,180.0*
1,1,0.24375,-0.36563,0.57813*
1,1,0.24375,0.36563,0.57813*
1,1,0.24375,0.36563,-0.57813*
1,1,0.24375,-0.36563,-0.57813*
%
%ADD21ROUNDEDRECTD21*%
%ADD22R,1.70000X2.60000*%
%ADD23R,0.63000X0.45000*%
G04:AMPARAMS|DCode=24|XSize=0.59mm|YSize=0.64mm|CornerRadius=0.07375mm|HoleSize=0mm|Usage=FLASHONLY|Rotation=180.000|XOffset=0mm|YOffset=0mm|HoleType=Round|Shape=RoundedRectangle|*
%AMROUNDEDRECTD24*
21,1,0.59000,0.49250,0,0,180.0*
21,1,0.44250,0.64000,0,0,180.0*
1,1,0.14750,-0.22125,0.24625*
1,1,0.14750,0.22125,0.24625*
1,1,0.14750,0.22125,-0.24625*
1,1,0.14750,-0.22125,-0.24625*
%
%ADD24ROUNDEDRECTD24*%
%ADD25R,1.80000X1.80000*%
G04:AMPARAMS|DCode=26|XSize=0.75mm|YSize=0.3mm|CornerRadius=0.15mm|HoleSize=0mm|Usage=FLASHONLY|Rotation=180.000|XOffset=0mm|YOffset=0mm|HoleType=Round|Shape=RoundedRectangle|*
%AMROUNDEDRECTD26*
21,1,0.75000,0.00000,0,0,180.0*
21,1,0.45000,0.30000,0,0,180.0*
1,1,0.30000,-0.22500,0.00000*
1,1,0.30000,0.22500,0.00000*
1,1,0.30000,0.22500,0.00000*
1,1,0.30000,-0.22500,0.00000*
%
%ADD26ROUNDEDRECTD26*%
G04:AMPARAMS|DCode=27|XSize=0.75mm|YSize=0.3mm|CornerRadius=0.15mm|HoleSize=0mm|Usage=FLASHONLY|Rotation=90.000|XOffset=0mm|YOffset=0mm|HoleType=Round|Shape=RoundedRectangle|*
%AMROUNDEDRECTD27*
21,1,0.75000,0.00000,0,0,90.0*
21,1,0.45000,0.30000,0,0,90.0*
1,1,0.30000,0.00000,0.22500*
1,1,0.30000,0.00000,-0.22500*
1,1,0.30000,0.00000,-0.22500*
1,1,0.30000,0.00000,0.22500*
%
%ADD27ROUNDEDRECTD27*%
G04:AMPARAMS|DCode=28|XSize=1.75mm|YSize=0.6mm|CornerRadius=0.075mm|HoleSize=0mm|Usage=FLASHONLY|Rotation=270.000|XOffset=0mm|YOffset=0mm|HoleType=Round|Shape=RoundedRectangle|*
%AMROUNDEDRECTD28*
21,1,1.75000,0.45000,0,0,270.0*
21,1,1.60000,0.60000,0,0,270.0*
1,1,0.15000,-0.22500,-0.80000*
1,1,0.15000,-0.22500,0.80000*
1,1,0.15000,0.22500,0.80000*
1,1,0.15000,0.22500,-0.80000*
%
%ADD28ROUNDEDRECTD28*%
%TA.AperFunction,BGAPad,CuDef*%
%ADD29C,0.39400*%
%TA.AperFunction,ConnectorPad*%
%ADD30R,1.45000X0.30000*%
%TA.AperFunction,SMDPad,CuDef*%
%ADD31R,1.45000X0.25000*%
%ADD32R,1.10000X0.60000*%
%ADD33R,0.90000X0.80000*%
%ADD34R,1.20000X1.80000*%
G04:AMPARAMS|DCode=35|XSize=0.8mm|YSize=0.4mm|CornerRadius=0.01mm|HoleSize=0mm|Usage=FLASHONLY|Rotation=180.000|XOffset=0mm|YOffset=0mm|HoleType=Round|Shape=RoundedRectangle|*
%AMROUNDEDRECTD35*
21,1,0.80000,0.38000,0,0,180.0*
21,1,0.78000,0.40000,0,0,180.0*
1,1,0.02000,-0.39000,0.19000*
1,1,0.02000,0.39000,0.19000*
1,1,0.02000,0.39000,-0.19000*
1,1,0.02000,-0.39000,-0.19000*
%
%ADD35ROUNDEDRECTD35*%
%TA.AperFunction,ComponentPad*%
G04:AMPARAMS|DCode=40|XSize=1.7mm|YSize=1.7mm|CornerRadius=0.85mm|HoleSize=0mm|Usage=FLASHONLY|Rotation=270.000|XOffset=0mm|YOffset=0mm|HoleType=Round|Shape=RoundedRectangle|*
%AMROUNDEDRECTD40*
21,1,1.70000,0.00000,0,0,270.0*
21,1,0.00000,1.70000,0,0,270.0*
1,1,1.70000,0.00000,0.00000*
1,1,1.70000,0.00000,0.00000*
1,1,1.70000,0.00000,0.00000*
1,1,1.70000,0.00000,0.00000*
%
%ADD40ROUNDEDRECTD40*%
%ADD41R,1.70000X1.70000*%
G04:AMPARAMS|DCode=42|XSize=1mm|YSize=1mm|CornerRadius=0.5mm|HoleSize=0mm|Usage=FLASHONLY|Rotation=180.000|XOffset=0mm|YOffset=0mm|HoleType=Round|Shape=RoundedRectangle|*
%AMROUNDEDRECTD42*
21,1,1.00000,0.00000,0,0,180.0*
21,1,0.00000,1.00000,0,0,180.0*
1,1,1.00000,0.00000,0.00000*
1,1,1.00000,0.00000,0.00000*
1,1,1.00000,0.00000,0.00000*
1,1,1.00000,0.00000,0.00000*
%
%ADD42ROUNDEDRECTD42*%
%ADD43R,1.00000X1.00000*%
%ADD44R,0.85000X0.85000*%
G04:AMPARAMS|DCode=45|XSize=1mm|YSize=2.2mm|CornerRadius=0.25mm|HoleSize=0mm|Usage=FLASHONLY|Rotation=270.000|XOffset=0mm|YOffset=0mm|HoleType=Round|Shape=RoundedRectangle|*
%AMROUNDEDRECTD45*
21,1,1.00000,1.70000,0,0,270.0*
21,1,0.50000,2.20000,0,0,270.0*
1,1,0.50000,-0.85000,-0.25000*
1,1,0.50000,-0.85000,0.25000*
1,1,0.50000,0.85000,0.25000*
1,1,0.50000,0.85000,-0.25000*
%
%ADD45ROUNDEDRECTD45*%
G04:AMPARAMS|DCode=47|XSize=1.7mm|YSize=1.7mm|CornerRadius=0.85mm|HoleSize=0mm|Usage=FLASHONLY|Rotation=0.000|XOffset=0mm|YOffset=0mm|HoleType=Round|Shape=RoundedRectangle|*
%AMROUNDEDRECTD47*
21,1,1.70000,0.00000,0,0,0.0*
21,1,0.00000,1.70000,0,0,0.0*
1,1,1.70000,0.00000,0.00000*
1,1,1.70000,0.00000,0.00000*
1,1,1.70000,0.00000,0.00000*
1,1,1.70000,0.00000,0.00000*
%
%ADD47ROUNDEDRECTD47*%
%ADD48R,1.70000X1.70000*%
%ADD56C,0.67000*%
D10*
X8821220Y3683745D02*
D03*
X8978719D02*
D03*
X8178750Y5770000D02*
D03*
X8021250D02*
D03*
X6561268Y3759000D02*
D03*
X6718768D02*
D03*
X7321250Y6370000D02*
D03*
X7478750D02*
D03*
X8051250Y4800000D02*
D03*
X8208750D02*
D03*
X10561250Y4780000D02*
D03*
X10718750D02*
D03*
X5642268Y4385000D02*
D03*
X5799768D02*
D03*
X9571250Y5770000D02*
D03*
X9728750D02*
D03*
X6561268Y3440000D02*
D03*
X6718768D02*
D03*
X5481250Y6280000D02*
D03*
X5638750D02*
D03*
X8821250Y3842795D02*
D03*
X8978750D02*
D03*
X9191250Y5630000D02*
D03*
X9348750D02*
D03*
X9571250Y5400000D02*
D03*
X9728750D02*
D03*
X7783914Y4378561D02*
D03*
X7941413D02*
D03*
X8071250Y4570000D02*
D03*
X8228750D02*
D03*
D11*
X11225660Y3039500D02*
D03*
X10824340D02*
D03*
X11225660Y3200500D02*
D03*
X10824340D02*
D03*
D12*
X9380000Y3198500D02*
D03*
Y3101500D02*
D03*
X7070250Y4991750D02*
D03*
Y5088750D02*
D03*
X9485000Y3096500D02*
D03*
Y3193500D02*
D03*
X7070250Y5338750D02*
D03*
Y5241750D02*
D03*
D13*
X8930000Y3020000D02*
D03*
X8170000Y4990000D02*
D03*
X7220000Y5880000D02*
D03*
X7810000Y5560000D02*
D03*
X8700000Y6170000D02*
D03*
X7465000Y4240000D02*
D03*
X8150000Y4350000D02*
D03*
D14*
X6530000Y6239111D02*
D03*
Y6426611D02*
D03*
X6280000D02*
D03*
Y6239111D02*
D03*
X10400000Y4336250D02*
D03*
Y4523750D02*
D03*
D15*
X6548881Y5454840D02*
D03*
Y5644840D02*
D03*
X6768882D02*
D03*
X6961018Y3495000D02*
D03*
Y3685000D02*
D03*
X7181018D02*
D03*
D16*
X6768882Y5472840D02*
D03*
X7181018Y3513000D02*
D03*
D17*
X7900000Y3856250D02*
D03*
Y3698750D02*
D03*
X6500000Y5244840D02*
D03*
Y5087340D02*
D03*
X8500000Y4241250D02*
D03*
Y4398750D02*
D03*
X7392500Y6022500D02*
D03*
Y6180000D02*
D03*
X7220250Y5011500D02*
D03*
Y5169000D02*
D03*
X8660000Y2981250D02*
D03*
Y3138750D02*
D03*
X6500000Y5866090D02*
D03*
Y6023590D02*
D03*
X10220000Y4838750D02*
D03*
Y4681250D02*
D03*
X8350000Y4241250D02*
D03*
Y4398750D02*
D03*
X8430000Y5791250D02*
D03*
Y5948750D02*
D03*
X8600000Y5791250D02*
D03*
Y5948750D02*
D03*
X8100000Y3691250D02*
D03*
Y3848750D02*
D03*
X8400000Y4998750D02*
D03*
Y4841250D02*
D03*
X6820250Y5011500D02*
D03*
Y5169000D02*
D03*
X8980000Y5791250D02*
D03*
Y5948750D02*
D03*
X10370000Y4838750D02*
D03*
Y4681250D02*
D03*
X7592500Y6022500D02*
D03*
Y6180000D02*
D03*
X10220000Y4371250D02*
D03*
Y4528750D02*
D03*
X8550000Y4998750D02*
D03*
Y4841250D02*
D03*
X8780000Y5791250D02*
D03*
Y5948750D02*
D03*
X7792500Y6003000D02*
D03*
Y6160500D02*
D03*
D18*
X7810000Y6560000D02*
D03*
Y6360000D02*
D03*
D19*
X7730000Y6375000D02*
D03*
Y6545000D02*
D03*
X7890000D02*
D03*
Y6375000D02*
D03*
D20*
X7730000Y6460000D02*
D03*
X7890000D02*
D03*
D21*
X9556250Y5590000D02*
D03*
X9743750D02*
D03*
X8825703Y3502187D02*
D03*
X9013202D02*
D03*
X9223750Y5430000D02*
D03*
X9036250D02*
D03*
X9556250Y5970000D02*
D03*
X9743750D02*
D03*
D22*
X8100000Y6070000D02*
D03*
D23*
X8234000Y6165000D02*
D03*
Y6070000D02*
D03*
Y5975000D02*
D03*
X7966000D02*
D03*
Y6070000D02*
D03*
Y6165000D02*
D03*
D24*
X10671500Y3920000D02*
D03*
X10768500D02*
D03*
X10671500Y4070000D02*
D03*
X10768500D02*
D03*
D25*
X9550000Y3560000D02*
D03*
D26*
X9402500Y3485000D02*
D03*
Y3535000D02*
D03*
Y3585000D02*
D03*
Y3635000D02*
D03*
X9697500D02*
D03*
Y3585000D02*
D03*
Y3535000D02*
D03*
Y3485000D02*
D03*
D27*
X9475000Y3707500D02*
D03*
X9525000D02*
D03*
X9575000D02*
D03*
X9625000D02*
D03*
Y3412500D02*
D03*
X9575000D02*
D03*
X9525000D02*
D03*
X9475000D02*
D03*
D28*
X7210750Y4132750D02*
D03*
X7083750D02*
D03*
X6956750D02*
D03*
X6829750D02*
D03*
Y4647750D02*
D03*
X6956750D02*
D03*
X7083750D02*
D03*
X7210750D02*
D03*
D29*
X8880000Y4100000D02*
D03*
Y4180000D02*
D03*
Y4260000D02*
D03*
Y4340000D02*
D03*
Y4420000D02*
D03*
Y4500000D02*
D03*
Y4580000D02*
D03*
Y4660000D02*
D03*
Y4740000D02*
D03*
Y4820000D02*
D03*
Y4900000D02*
D03*
Y4980000D02*
D03*
Y5060000D02*
D03*
Y5140000D02*
D03*
X8960000Y4100000D02*
D03*
Y4180000D02*
D03*
Y4260000D02*
D03*
Y4340000D02*
D03*
Y4420000D02*
D03*
Y4500000D02*
D03*
Y4580000D02*
D03*
Y4660000D02*
D03*
Y4740000D02*
D03*
Y4820000D02*
D03*
Y4900000D02*
D03*
Y4980000D02*
D03*
Y5060000D02*
D03*
Y5140000D02*
D03*
X9040000Y4100000D02*
D03*
Y4180000D02*
D03*
Y4260000D02*
D03*
Y4340000D02*
D03*
Y4420000D02*
D03*
Y4500000D02*
D03*
Y4580000D02*
D03*
Y4660000D02*
D03*
Y4740000D02*
D03*
Y4820000D02*
D03*
Y4900000D02*
D03*
Y4980000D02*
D03*
Y5060000D02*
D03*
Y5140000D02*
D03*
X9120000Y4100000D02*
D03*
Y4180000D02*
D03*
Y4260000D02*
D03*
Y4340000D02*
D03*
Y4420000D02*
D03*
Y4500000D02*
D03*
Y4580000D02*
D03*
Y4660000D02*
D03*
Y4740000D02*
D03*
Y4820000D02*
D03*
Y4900000D02*
D03*
Y4980000D02*
D03*
Y5060000D02*
D03*
Y5140000D02*
D03*
X9200000Y4100000D02*
D03*
Y4180000D02*
D03*
Y4260000D02*
D03*
Y4340000D02*
D03*
Y4420000D02*
D03*
Y4500000D02*
D03*
Y4580000D02*
D03*
Y4660000D02*
D03*
Y4740000D02*
D03*
Y4820000D02*
D03*
Y4900000D02*
D03*
Y4980000D02*
D03*
Y5060000D02*
D03*
Y5140000D02*
D03*
X9280000Y4100000D02*
D03*
Y4180000D02*
D03*
Y4260000D02*
D03*
Y4340000D02*
D03*
Y4420000D02*
D03*
Y4500000D02*
D03*
Y4580000D02*
D03*
Y4660000D02*
D03*
Y4740000D02*
D03*
Y4820000D02*
D03*
Y4900000D02*
D03*
Y4980000D02*
D03*
Y5060000D02*
D03*
Y5140000D02*
D03*
X9360000Y4100000D02*
D03*
Y4180000D02*
D03*
Y4260000D02*
D03*
Y4340000D02*
D03*
Y4420000D02*
D03*
Y4500000D02*
D03*
Y4580000D02*
D03*
Y4660000D02*
D03*
Y4740000D02*
D03*
Y4820000D02*
D03*
Y4900000D02*
D03*
Y4980000D02*
D03*
Y5060000D02*
D03*
Y5140000D02*
D03*
X9440000Y4100000D02*
D03*
Y4180000D02*
D03*
Y4260000D02*
D03*
Y4340000D02*
D03*
Y4420000D02*
D03*
Y4500000D02*
D03*
Y4580000D02*
D03*
Y4660000D02*
D03*
Y4740000D02*
D03*
Y4820000D02*
D03*
Y4900000D02*
D03*
Y4980000D02*
D03*
Y5060000D02*
D03*
Y5140000D02*
D03*
X9520000Y4100000D02*
D03*
Y4180000D02*
D03*
Y4260000D02*
D03*
Y4340000D02*
D03*
Y4420000D02*
D03*
Y4500000D02*
D03*
Y4580000D02*
D03*
Y4660000D02*
D03*
Y4740000D02*
D03*
Y4820000D02*
D03*
Y4900000D02*
D03*
Y4980000D02*
D03*
Y5060000D02*
D03*
Y5140000D02*
D03*
X9600000Y4100000D02*
D03*
Y4180000D02*
D03*
Y4260000D02*
D03*
Y4340000D02*
D03*
Y4420000D02*
D03*
Y4500000D02*
D03*
Y4580000D02*
D03*
Y4660000D02*
D03*
Y4740000D02*
D03*
Y4820000D02*
D03*
Y4900000D02*
D03*
Y4980000D02*
D03*
Y5060000D02*
D03*
Y5140000D02*
D03*
X9680000Y4100000D02*
D03*
Y4180000D02*
D03*
Y4260000D02*
D03*
Y4340000D02*
D03*
Y4420000D02*
D03*
Y4500000D02*
D03*
Y4580000D02*
D03*
Y4660000D02*
D03*
Y4740000D02*
D03*
Y4820000D02*
D03*
Y4900000D02*
D03*
Y4980000D02*
D03*
Y5060000D02*
D03*
Y5140000D02*
D03*
X9760000Y4100000D02*
D03*
Y4180000D02*
D03*
Y4260000D02*
D03*
Y4340000D02*
D03*
Y4420000D02*
D03*
Y4500000D02*
D03*
Y4580000D02*
D03*
Y4660000D02*
D03*
Y4740000D02*
D03*
Y4820000D02*
D03*
Y4900000D02*
D03*
Y4980000D02*
D03*
Y5060000D02*
D03*
Y5140000D02*
D03*
X9840000Y4100000D02*
D03*
Y4180000D02*
D03*
Y4260000D02*
D03*
Y4340000D02*
D03*
Y4420000D02*
D03*
Y4500000D02*
D03*
Y4580000D02*
D03*
Y4660000D02*
D03*
Y4740000D02*
D03*
Y4820000D02*
D03*
Y4900000D02*
D03*
Y4980000D02*
D03*
Y5060000D02*
D03*
Y5140000D02*
D03*
X9920000Y4100000D02*
D03*
Y4180000D02*
D03*
Y4260000D02*
D03*
Y4340000D02*
D03*
Y4420000D02*
D03*
Y4500000D02*
D03*
Y4580000D02*
D03*
Y4660000D02*
D03*
Y4740000D02*
D03*
Y4820000D02*
D03*
Y4900000D02*
D03*
Y4980000D02*
D03*
Y5060000D02*
D03*
Y5140000D02*
D03*
D30*
X6081481Y5854840D02*
D03*
Y5774840D02*
D03*
Y5314840D02*
D03*
Y5234840D02*
D03*
Y5204840D02*
D03*
Y5284840D02*
D03*
Y5804840D02*
D03*
Y5884840D02*
D03*
X6081018Y3950000D02*
D03*
Y3870000D02*
D03*
Y3410000D02*
D03*
Y3330000D02*
D03*
Y3300000D02*
D03*
Y3380000D02*
D03*
Y3900000D02*
D03*
Y3980000D02*
D03*
D31*
X6081481Y5719840D02*
D03*
Y5619840D02*
D03*
Y5469840D02*
D03*
Y5369840D02*
D03*
Y5419840D02*
D03*
Y5519840D02*
D03*
Y5569840D02*
D03*
Y5669840D02*
D03*
X6081018Y3815000D02*
D03*
Y3715000D02*
D03*
Y3565000D02*
D03*
Y3465000D02*
D03*
Y3515000D02*
D03*
Y3615000D02*
D03*
Y3665000D02*
D03*
Y3765000D02*
D03*
D32*
X8550000Y4690000D02*
D03*
Y4550000D02*
D03*
D33*
X7460000Y3920000D02*
D03*
X7660000Y4015000D02*
D03*
Y3825000D02*
D03*
X7140000Y6187861D02*
D03*
X6940000Y6092861D02*
D03*
Y6282861D02*
D03*
D34*
X8544000Y3840250D02*
D03*
Y3500250D02*
D03*
X8324000D02*
D03*
Y3840250D02*
D03*
D35*
X7980000Y5220000D02*
D03*
Y5140000D02*
D03*
Y5060000D02*
D03*
Y4980000D02*
D03*
X7580000D02*
D03*
Y5060000D02*
D03*
Y5140000D02*
D03*
Y5220000D02*
D03*
D40*
X8530000Y6770000D02*
D03*
X8784000D02*
D03*
X9038000D02*
D03*
X9292000D02*
D03*
X9546000D02*
D03*
X9800000D02*
D03*
X10054000D02*
D03*
X10308000D02*
D03*
X10562000D02*
D03*
X10816000D02*
D03*
X5580000D02*
D03*
X5834000D02*
D03*
X6088000D02*
D03*
X6342000D02*
D03*
X6596000D02*
D03*
X6850000D02*
D03*
X7104000D02*
D03*
X7358000D02*
D03*
X7612000D02*
D03*
X7866000D02*
D03*
X5580000Y2720000D02*
D03*
X5834000D02*
D03*
X6088000D02*
D03*
X6342000D02*
D03*
X6596000D02*
D03*
X6850000D02*
D03*
X7104000D02*
D03*
X7358000D02*
D03*
X7612000D02*
D03*
X7866000D02*
D03*
X7814500Y3090000D02*
D03*
X8068500D02*
D03*
X8550000Y2720000D02*
D03*
X8804000D02*
D03*
X9058000D02*
D03*
X9312000D02*
D03*
X9566000D02*
D03*
X9820000D02*
D03*
X10074000D02*
D03*
X10328000D02*
D03*
X10582000D02*
D03*
X10836000D02*
D03*
D41*
X11070000Y6770000D02*
D03*
X8120000D02*
D03*
Y2720000D02*
D03*
X8322500Y3090000D02*
D03*
X11090000Y2720000D02*
D03*
D42*
X10260117Y3909500D02*
D03*
Y3782500D02*
D03*
Y3655500D02*
D03*
Y3528500D02*
D03*
Y3401500D02*
D03*
Y3274500D02*
D03*
D43*
Y3147500D02*
D03*
D44*
X9170000Y3010000D02*
D03*
D45*
X5468481Y6102840D02*
D03*
X5935481D02*
D03*
X5467481Y4986840D02*
D03*
X5935481D02*
D03*
X5468018Y4198000D02*
D03*
X5467018Y3082000D02*
D03*
X5935018Y4198000D02*
D03*
Y3082000D02*
D03*
D47*
X11100000Y3496000D02*
D03*
Y3750000D02*
D03*
Y4004000D02*
D03*
Y4258000D02*
D03*
Y4512000D02*
D03*
Y4766000D02*
D03*
Y5020000D02*
D03*
Y5274000D02*
D03*
Y5528000D02*
D03*
Y5782000D02*
D03*
Y6036000D02*
D03*
X6330000Y4755500D02*
D03*
Y4501500D02*
D03*
D48*
X11100000Y6290000D02*
D03*
X6330000Y4247500D02*
D03*
D56*
X5943981Y5919840D02*
D03*
Y5169840D02*
D03*
X5943518Y4015000D02*
D03*
Y3265000D02*
D03*
%TF.MD5,d9906d9a1cacdb95553cca27b8c8c2e5*%
M02*
