%TF.GenerationSoftware,Altium Limited,Altium Designer,25.8.1 (18)*%
G04 Layer_Color=16711935*
%FSLAX45Y45*%
%MOMM*%
%TF.SameCoordinates,17085BFC-A43B-44DB-BDC7-07AAAC4551C8*%
%TF.FilePolarity,Negative*%
%TF.FileFunction,Soldermask,Bot*%
%TF.Part,Single*%
G01*
G75*
%TA.AperFunction,ComponentPad*%
G04:AMPARAMS|DCode=40|XSize=1.7mm|YSize=1.7mm|CornerRadius=0.85mm|HoleSize=0mm|Usage=FLASHONLY|Rotation=270.000|XOffset=0mm|YOffset=0mm|HoleType=Round|Shape=RoundedRectangle|*
%AMROUNDEDRECTD40*
21,1,1.70000,0.00000,0,0,270.0*
21,1,0.00000,1.70000,0,0,270.0*
1,1,1.70000,0.00000,0.00000*
1,1,1.70000,0.00000,0.00000*
1,1,1.70000,0.00000,0.00000*
1,1,1.70000,0.00000,0.00000*
%
%ADD40ROUNDEDRECTD40*%
%ADD41R,1.70000X1.70000*%
G04:AMPARAMS|DCode=42|XSize=1mm|YSize=1mm|CornerRadius=0.5mm|HoleSize=0mm|Usage=FLASHONLY|Rotation=180.000|XOffset=0mm|YOffset=0mm|HoleType=Round|Shape=RoundedRectangle|*
%AMROUNDEDRECTD42*
21,1,1.00000,0.00000,0,0,180.0*
21,1,0.00000,1.00000,0,0,180.0*
1,1,1.00000,0.00000,0.00000*
1,1,1.00000,0.00000,0.00000*
1,1,1.00000,0.00000,0.00000*
1,1,1.00000,0.00000,0.00000*
%
%ADD42ROUNDEDRECTD42*%
%ADD43R,1.00000X1.00000*%
%ADD44R,0.85000X0.85000*%
G04:AMPARAMS|DCode=45|XSize=1mm|YSize=2.2mm|CornerRadius=0.25mm|HoleSize=0mm|Usage=FLASHONLY|Rotation=270.000|XOffset=0mm|YOffset=0mm|HoleType=Round|Shape=RoundedRectangle|*
%AMROUNDEDRECTD45*
21,1,1.00000,1.70000,0,0,270.0*
21,1,0.50000,2.20000,0,0,270.0*
1,1,0.50000,-0.85000,-0.25000*
1,1,0.50000,-0.85000,0.25000*
1,1,0.50000,0.85000,0.25000*
1,1,0.50000,0.85000,-0.25000*
%
%ADD45ROUNDEDRECTD45*%
G04:AMPARAMS|DCode=47|XSize=1.7mm|YSize=1.7mm|CornerRadius=0.85mm|HoleSize=0mm|Usage=FLASHONLY|Rotation=0.000|XOffset=0mm|YOffset=0mm|HoleType=Round|Shape=RoundedRectangle|*
%AMROUNDEDRECTD47*
21,1,1.70000,0.00000,0,0,0.0*
21,1,0.00000,1.70000,0,0,0.0*
1,1,1.70000,0.00000,0.00000*
1,1,1.70000,0.00000,0.00000*
1,1,1.70000,0.00000,0.00000*
1,1,1.70000,0.00000,0.00000*
%
%ADD47ROUNDEDRECTD47*%
%ADD48R,1.70000X1.70000*%
%ADD56C,0.67000*%
D40*
X8530000Y6770000D02*
D03*
X8784000D02*
D03*
X9038000D02*
D03*
X9292000D02*
D03*
X9546000D02*
D03*
X9800000D02*
D03*
X10054000D02*
D03*
X10308000D02*
D03*
X10562000D02*
D03*
X10816000D02*
D03*
X5580000D02*
D03*
X5834000D02*
D03*
X6088000D02*
D03*
X6342000D02*
D03*
X6596000D02*
D03*
X6850000D02*
D03*
X7104000D02*
D03*
X7358000D02*
D03*
X7612000D02*
D03*
X7866000D02*
D03*
X5580000Y2720000D02*
D03*
X5834000D02*
D03*
X6088000D02*
D03*
X6342000D02*
D03*
X6596000D02*
D03*
X6850000D02*
D03*
X7104000D02*
D03*
X7358000D02*
D03*
X7612000D02*
D03*
X7866000D02*
D03*
X7814500Y3090000D02*
D03*
X8068500D02*
D03*
X8550000Y2720000D02*
D03*
X8804000D02*
D03*
X9058000D02*
D03*
X9312000D02*
D03*
X9566000D02*
D03*
X9820000D02*
D03*
X10074000D02*
D03*
X10328000D02*
D03*
X10582000D02*
D03*
X10836000D02*
D03*
D41*
X11070000Y6770000D02*
D03*
X8120000D02*
D03*
Y2720000D02*
D03*
X8322500Y3090000D02*
D03*
X11090000Y2720000D02*
D03*
D42*
X10260117Y3909500D02*
D03*
Y3782500D02*
D03*
Y3655500D02*
D03*
Y3528500D02*
D03*
Y3401500D02*
D03*
Y3274500D02*
D03*
D43*
Y3147500D02*
D03*
D44*
X9170000Y3010000D02*
D03*
D45*
X5468481Y6102840D02*
D03*
X5935481D02*
D03*
X5467481Y4986840D02*
D03*
X5935481D02*
D03*
X5468018Y4198000D02*
D03*
X5467018Y3082000D02*
D03*
X5935018Y4198000D02*
D03*
Y3082000D02*
D03*
D47*
X11100000Y3496000D02*
D03*
Y3750000D02*
D03*
Y4004000D02*
D03*
Y4258000D02*
D03*
Y4512000D02*
D03*
Y4766000D02*
D03*
Y5020000D02*
D03*
Y5274000D02*
D03*
Y5528000D02*
D03*
Y5782000D02*
D03*
Y6036000D02*
D03*
X6330000Y4755500D02*
D03*
Y4501500D02*
D03*
D48*
X11100000Y6290000D02*
D03*
X6330000Y4247500D02*
D03*
D56*
X5943981Y5919840D02*
D03*
Y5169840D02*
D03*
X5943518Y4015000D02*
D03*
Y3265000D02*
D03*
%TF.MD5,69bbbca5a5074481f8fa0c5e4ce14021*%
M02*
